<svg width="151" height="151" viewBox="0 0 151 151" fill="none" xmlns="http://www.w3.org/2000/svg">
<path d="M149.281 126.211L98.0312 74.7656L149.398 23.9844C151.508 21.875 151.508 18.4375 149.398 16.3281L134.789 1.64062C133.773 0.624998 132.406 0.0781231 130.961 0.0781231C129.516 0.0781231 128.148 0.664061 127.133 1.64062L76 52.2656L24.7891 1.67969C23.7734 0.664063 22.4062 0.117188 20.9609 0.117188C19.5156 0.117188 18.1484 0.703125 17.1328 1.67969L2.5625 16.3672C0.453125 18.4766 0.453125 21.9141 2.5625 24.0234L53.9297 74.8047L2.71875 126.211C1.70313 127.227 1.11719 128.594 1.11719 130.039C1.11719 131.484 1.66406 132.852 2.71875 133.867L17.3281 148.555C18.3828 149.609 19.75 150.156 21.1562 150.156C22.5234 150.156 23.9297 149.648 24.9844 148.555L76 97.3047L127.055 148.516C128.109 149.57 129.477 150.117 130.883 150.117C132.25 150.117 133.656 149.609 134.711 148.516L149.32 133.828C150.336 132.813 150.922 131.445 150.922 130C150.883 128.594 150.297 127.227 149.281 126.211Z" fill="white"/>
</svg>
