<svg id="e7xlbpir21vv1" xmlns="http://www.w3.org/2000/svg" xmlns:xlink="http://www.w3.org/1999/xlink" viewBox="0 0 897 688" shape-rendering="geometricPrecision" text-rendering="geometricPrecision"><style><![CDATA[#e7xlbpir21vv3_tr {animation: e7xlbpir21vv3_tr__tr 5000ms linear infinite normal forwards}@keyframes e7xlbpir21vv3_tr__tr { 0% {transform: translate(447.085690px,282.070176px) rotate(360deg);animation-timing-function: cubic-bezier(0.495000,0.490000,0.495000,0.495000)} 100% {transform: translate(447.085690px,282.070176px) rotate(0deg)} }]]></style><g id="e7xlbpir21vv2"><g id="e7xlbpir21vv3_tr" transform="translate(447.085690,282.070176) rotate(360)"><g id="e7xlbpir21vv3" transform="translate(-448.960000,-242.498993)"><path id="e7xlbpir21vv4" d="M440.966000,431.936000C452.074000,431.940000,463.162000,430.979000,474.106000,429.073000L471.352000,413.314000C404.112000,425.046000,336.153000,396.840000,296.987000,340.942000L318.023000,328.057000C325.077000,323.698000,333.888000,323.319000,341.293000,327.049000L348.562000,330.685000C351.276000,332.033000,352.991000,334.806000,352.979000,337.837000L352.979000,349.116000C352.948000,358.939000,358.931000,367.781000,368.063000,371.402000L395.133000,382.224000C397.965000,383.365000,400.995000,383.951000,404.050000,383.943000L421.649000,383.943000C425.894000,383.955000,429.972000,382.267000,432.967000,379.256000L442.563000,369.656000C447.438000,364.790000,448.645000,357.349000,445.563000,351.186000L435.717000,331.502000C434.592000,329.252000,434.592000,326.604000,435.717000,324.350000L451.714000,292.355000C453.066000,289.652000,455.831000,287.949000,458.850000,287.957000L480.960000,287.957000C489.795000,287.957000,496.958000,280.794000,496.958000,271.960000C496.958000,267.542000,500.539000,263.961000,504.956000,263.961000L512.955000,263.961000C515.471000,263.961000,517.841000,265.148000,519.353000,267.160000L538.549000,292.757000L551.348000,283.157000L532.152000,257.563000C527.605000,251.537000,520.501000,247.983000,512.955000,247.963000L504.956000,247.963000C491.705000,247.963000,480.960000,258.708000,480.960000,271.960000L458.850000,271.960000C449.754000,271.928000,441.431000,277.072000,437.388000,285.223000L421.391000,317.219000C418.028000,323.979000,418.028000,331.923000,421.391000,338.684000L431.229000,358.373000L421.633000,367.969000L404.034000,367.969000C403.018000,367.973000,402.011000,367.773000,401.066000,367.395000L373.992000,356.564000C370.945000,355.361000,368.949000,352.413000,368.961000,349.140000L368.961000,337.860000C368.992000,328.764000,363.849000,320.441000,355.697000,316.402000L348.425000,312.762000C336.087000,306.544000,321.402000,307.177000,309.642000,314.434000L288.356000,327.471000C259.989000,278.197000,257.278000,218.225000,281.076000,166.592000L287.629000,176.407000C288.504000,177.712000,288.977000,179.247000,288.989000,180.821000L288.989000,201.337000C288.969000,207.707000,291.500000,213.820000,296.019000,218.311000L318.640000,240.933000C323.132000,245.448000,329.244000,247.983000,335.614000,247.963000L372.558000,247.963000C376.893000,247.963000,381.147000,246.788000,384.869000,244.565000L413.443000,227.478000C420.578000,223.107000,424.941000,215.347000,424.968000,206.977000L424.968000,184.531000C424.976000,176.497000,420.965000,168.991000,414.282000,164.534000L400.972000,155.696000L400.972000,135.980000C400.972000,127.145000,393.809000,119.982000,384.974000,119.982000L369.695000,119.982000C366.981000,119.982000,364.450000,118.603000,362.978000,116.319000L346.882000,91.361400C374.995000,73.461700,407.639000,63.963200,440.966000,63.990500C443.645000,63.990500,446.309000,64.068600,448.965000,64.189700L448.965000,78.101700C448.973000,81.132500,447.258000,83.905500,444.540000,85.253000L425.769000,94.618800C420.352000,97.325400,416.942000,102.871000,416.970000,108.929000L416.970000,117.373000C416.962000,122.400000,419.313000,127.137000,423.324000,130.164000C427.335000,133.195000,432.534000,134.164000,437.365000,132.781000L472.961000,122.591000L472.961000,138.378000C472.961000,143.830000,474.816000,149.115000,478.222000,153.368000L499.110000,179.477000C505.859000,187.886000,517.380000,190.772000,527.297000,186.539000L559.292000,172.845000C562.971000,171.268000,567.248000,172.654000,569.306000,176.087000L581.390000,196.229000C585.792000,203.528000,593.728000,207.961000,602.255000,207.879000L613.956000,207.746000C618.799000,233.543000,617.799000,260.102000,611.027000,285.462000L626.450000,289.559000C647.693000,210.117000,615.983000,125.970000,547.595000,80.308400C479.206000,34.647200,389.333000,37.611600,324.104000,87.682300C258.872000,137.753000,232.778000,223.807000,259.212000,301.674000C285.645000,379.541000,358.736000,431.924000,440.966000,431.936000ZM610.171000,191.772000L602.028000,191.866000C599.185000,191.901000,596.541000,190.421000,595.080000,187.980000L582.992000,167.831000C576.786000,157.574000,563.983000,153.438000,552.949000,158.129000L520.954000,171.822000C517.650000,173.240000,513.803000,172.279000,511.553000,169.471000L490.670000,143.362000C489.553000,141.944000,488.951000,140.186000,488.959000,138.378000L488.959000,122.591000C488.967000,117.565000,486.612000,112.827000,482.600000,109.800000C478.593000,106.769000,473.391000,105.801000,468.560000,107.183000L432.967000,117.373000L432.967000,108.929000L451.699000,99.559400C459.850000,95.521000,464.994000,87.198000,464.962000,78.101700L464.962000,65.669900C534.038000,75.301300,590.952000,124.728000,610.171000,191.772000ZM333.783000,100.544000L349.538000,124.989000C353.944000,131.852000,361.544000,135.992000,369.695000,135.980000L384.974000,135.980000L384.974000,155.696000C384.974000,161.046000,387.650000,166.042000,392.102000,169.006000L405.409000,177.876000C407.635000,179.360000,408.971000,181.860000,408.971000,184.531000L408.971000,206.977000C408.967000,209.746000,407.533000,212.320000,405.178000,213.777000L376.655000,230.829000C375.417000,231.575000,374.003000,231.966000,372.558000,231.966000L335.614000,231.966000C333.490000,231.966000,331.451000,231.126000,329.951000,229.622000L307.330000,207.001000C305.826000,205.501000,304.982000,203.462000,304.986000,201.337000L304.986000,180.821000C304.986000,176.079000,303.580000,171.439000,300.948000,167.495000L289.555000,150.435000C301.010000,131.160000,316.020000,114.229000,333.783000,100.544000Z" fill="rgb(255,255,255)" stroke="none" stroke-width="1"/><path id="e7xlbpir21vv5" d="M433.182000,16.540500L432.069000,0.585846C426.656000,0.960790,421.176000,1.527110,415.794000,2.273100L417.985000,18.126200C423.008000,17.431000,428.167000,16.892000,433.182000,16.540500Z" fill="rgb(255,255,255)" stroke="none" stroke-width="1"/><path id="e7xlbpir21vv6" d="M551.532000,40.794700L558.874000,26.582000C554.078000,24.086300,549.059000,21.723300,544.052000,19.563500L537.709000,34.252700C542.381000,36.283700,547.028000,38.490400,551.532000,40.794700Z" fill="rgb(255,255,255)" stroke="none" stroke-width="1"/><path id="e7xlbpir21vv7" d="M402.933000,20.731300L399.644000,5.069550C394.309000,6.190480,388.966000,7.471540,383.740000,8.975220L388.083000,24.363600C392.973000,22.996600,397.949000,21.774100,402.933000,20.731300Z" fill="rgb(255,255,255)" stroke="none" stroke-width="1"/><path id="e7xlbpir21vv8" d="M494.028000,20.532100L497.227000,4.854740C491.927000,3.776780,486.487000,2.855040,481.081000,2.136400L478.960000,17.989500C484.006000,18.661300,489.080000,19.516600,494.028000,20.532100Z" fill="rgb(255,255,255)" stroke="none" stroke-width="1"/><path id="e7xlbpir21vv9" d="M577.672000,56.655600L586.886000,43.567700C582.449000,40.451000,577.832000,37.435800,573.169000,34.612000L564.873000,48.289700C569.236000,50.929900,573.536000,53.745900,577.672000,56.655600Z" fill="rgb(255,255,255)" stroke="none" stroke-width="1"/><path id="e7xlbpir21vv10" d="M523.473000,28.683200L528.785000,13.599500C523.626000,11.783400,518.384000,10.135200,513.154000,8.686200L508.889000,24.109700C513.756000,25.445400,518.658000,26.988200,523.473000,28.683200Z" fill="rgb(255,255,255)" stroke="none" stroke-width="1"/><path id="e7xlbpir21vv11" d="M463.756000,16.485800L464.794000,0.488209C459.573000,0.164038,454.296000,0,448.965000,0L448.453000,0L448.965000,15.997600C453.929000,15.997600,458.858000,16.161700,463.756000,16.485800Z" fill="rgb(255,255,255)" stroke="none" stroke-width="1"/><path id="e7xlbpir21vv12" d="M373.527000,29.011300L368.137000,13.958900C363.001000,15.798400,357.888000,17.821600,352.940000,19.989200L359.337000,34.651100C363.970000,32.628000,368.735000,30.729800,373.527000,29.011300Z" fill="rgb(255,255,255)" stroke="none" stroke-width="1"/><path id="e7xlbpir21vv13" d="M601.430000,75.898900L612.316000,64.181900C608.316000,60.479300,604.164000,56.862700,599.958000,53.449100L589.877000,65.876900C593.814000,69.060100,597.701000,72.438500,601.430000,75.898900Z" fill="rgb(255,255,255)" stroke="none" stroke-width="1"/><path id="e7xlbpir21vv14" d="M670.764000,208.770000L686.617000,206.528000C685.871000,201.169000,684.922000,195.740000,683.801000,190.398000L668.131000,193.682000C669.194000,198.666000,670.076000,203.739000,670.764000,208.770000Z" fill="rgb(255,255,255)" stroke="none" stroke-width="1"/><path id="e7xlbpir21vv15" d="M672.932000,239.230000L688.929000,239.164000C688.929000,233.692000,688.710000,228.189000,688.328000,222.807000L672.330000,223.943000C672.732000,228.993000,672.932000,234.086000,672.932000,239.230000Z" fill="rgb(255,255,255)" stroke="none" stroke-width="1"/><path id="e7xlbpir21vv16" d="M664.484000,178.837000L679.880000,174.494000C678.411000,169.287000,676.732000,164.030000,674.880000,158.898000L659.828000,164.304000C661.546000,169.096000,663.109000,173.982000,664.484000,178.837000Z" fill="rgb(255,255,255)" stroke="none" stroke-width="1"/><path id="e7xlbpir21vv17" d="M622.337000,98.176800L634.718000,88.049400C631.281000,83.843000,627.649000,79.699100,623.931000,75.742700L612.269000,86.690300C615.741000,90.385000,619.131000,94.259400,622.337000,98.176800Z" fill="rgb(255,255,255)" stroke="none" stroke-width="1"/><path id="e7xlbpir21vv18" d="M654.180000,150.122000L668.834000,143.721000C666.667000,138.772000,664.284000,133.812000,661.757000,128.973000L647.584000,136.378000C649.943000,140.874000,652.134000,145.498000,654.180000,150.122000Z" fill="rgb(255,255,255)" stroke="none" stroke-width="1"/><path id="e7xlbpir21vv19" d="M640.046000,123.072000L653.684000,114.702000C650.837000,110.062000,647.799000,105.473000,644.654000,101.055000L631.617000,110.327000C634.535000,114.456000,637.394000,118.736000,640.046000,123.072000Z" fill="rgb(255,255,255)" stroke="none" stroke-width="1"/><path id="e7xlbpir21vv20" d="M243.546000,329.350000L228.884000,335.751000C231.052000,340.735000,233.426000,345.691000,235.930000,350.507000L250.123000,343.148000C247.788000,338.637000,245.569000,333.997000,243.546000,329.350000Z" fill="rgb(255,255,255)" stroke="none" stroke-width="1"/><path id="e7xlbpir21vv21" d="M296.140000,403.682000L285.212000,415.380000C289.211000,419.090000,293.339000,422.715000,297.554000,426.144000L307.658000,413.739000C303.721000,410.533000,299.842000,407.139000,296.140000,403.682000Z" fill="rgb(255,255,255)" stroke="none" stroke-width="1"/><path id="e7xlbpir21vv22" d="M275.268000,381.369000L262.871000,391.477000C266.304000,395.683000,269.925000,399.827000,273.631000,403.803000L285.325000,392.887000C281.841000,389.157000,278.490000,385.318000,275.268000,381.369000Z" fill="rgb(255,255,255)" stroke="none" stroke-width="1"/><path id="e7xlbpir21vv23" d="M319.847000,422.992000L310.583000,436.056000C315.024000,439.193000,319.625000,442.223000,324.280000,445.047000L332.595000,431.385000C328.295000,428.737000,323.991000,425.921000,319.847000,422.992000Z" fill="rgb(255,255,255)" stroke="none" stroke-width="1"/><path id="e7xlbpir21vv24" d="M257.626000,356.435000L243.972000,364.747000C246.796000,369.371000,249.819000,373.968000,252.963000,378.416000L266.015000,369.168000C263.078000,365.051000,260.255000,360.747000,257.626000,356.435000Z" fill="rgb(255,255,255)" stroke="none" stroke-width="1"/><path id="e7xlbpir21vv25" d="M233.309000,300.612000L217.901000,304.931000C219.366000,310.153000,221.038000,315.410000,222.862000,320.538000L237.930000,315.152000C236.196000,310.352000,234.668000,305.482000,233.309000,300.612000Z" fill="rgb(255,255,255)" stroke="none" stroke-width="1"/><path id="e7xlbpir21vv26" d="M433.678000,463.419000L432.608000,479.378000C438.029000,479.745000,443.532000,479.929000,448.965000,479.929000L448.965000,463.931000C443.829000,463.931000,438.732000,463.759000,433.678000,463.419000Z" fill="rgb(255,255,255)" stroke="none" stroke-width="1"/><path id="e7xlbpir21vv27" d="M403.417000,459.299000L400.218000,474.969000C405.522000,476.066000,410.963000,476.992000,416.360000,477.730000L418.512000,461.877000C413.435000,461.189000,408.369000,460.322000,403.417000,459.299000Z" fill="rgb(255,255,255)" stroke="none" stroke-width="1"/><path id="e7xlbpir21vv28" d="M373.999000,451.085000L368.649000,466.153000C373.800000,467.985000,379.045000,469.649000,384.263000,471.106000L388.564000,455.694000C383.709000,454.331000,378.807000,452.780000,373.999000,451.085000Z" fill="rgb(255,255,255)" stroke="none" stroke-width="1"/><path id="e7xlbpir21vv29" d="M345.957000,438.888000L338.587000,453.093000C343.387000,455.596000,348.386000,457.963000,353.385000,460.131000L359.787000,445.461000C355.108000,443.438000,350.460000,441.224000,345.957000,438.888000Z" fill="rgb(255,255,255)" stroke="none" stroke-width="1"/><path id="e7xlbpir21vv30" d="M345.578000,41.232200L338.173000,27.050700C333.373000,29.569800,328.573000,32.284300,323.944000,35.108100L332.287000,48.793500C336.595000,46.122100,341.067000,43.595100,345.578000,41.232200Z" fill="rgb(255,255,255)" stroke="none" stroke-width="1"/><path id="e7xlbpir21vv31" d="M262.590000,88.787600C259.145000,93.025200,255.818000,97.419100,252.697000,101.840000L265.793000,111.038000C268.734000,106.875000,271.811000,102.809000,275.022000,98.840800L262.590000,88.787600Z" fill="rgb(255,255,255)" stroke="none" stroke-width="1"/><path id="e7xlbpir21vv32" d="M228.685000,144.627000C226.533000,149.595000,224.510000,154.731000,222.678000,159.898000L237.762000,165.233000C239.476000,160.433000,241.355000,155.633000,243.362000,151.001000L228.685000,144.627000Z" fill="rgb(255,255,255)" stroke="none" stroke-width="1"/><path id="e7xlbpir21vv33" d="M243.745000,115.526000C240.906000,120.197000,238.211000,125.005000,235.746000,129.821000L249.963000,137.171000C252.283000,132.676000,254.802000,128.196000,257.450000,123.829000L243.745000,115.526000Z" fill="rgb(255,255,255)" stroke="none" stroke-width="1"/><path id="e7xlbpir21vv34" d="M284.931000,64.791200C280.931000,68.525000,277.053000,72.430600,273.366000,76.379300L285.075000,87.291700C288.516000,83.597000,292.148000,79.949100,295.866000,76.461300L284.931000,64.791200Z" fill="rgb(255,255,255)" stroke="none" stroke-width="1"/><path id="e7xlbpir21vv35" d="M319.519000,57.167300L310.274000,44.114500C305.841000,47.258600,301.475000,50.594000,297.249000,54.031000L307.384000,66.388600C311.306000,63.189800,315.383000,60.096500,319.519000,57.167300Z" fill="rgb(255,255,255)" stroke="none" stroke-width="1"/><path id="e7xlbpir21vv36" d="M227.091000,270.702000L211.246000,272.870000C211.984000,278.240000,212.910000,283.669000,214.023000,289.012000L229.685000,285.766000C228.654000,280.759000,227.779000,275.713000,227.091000,270.702000Z" fill="rgb(255,255,255)" stroke="none" stroke-width="1"/><path id="e7xlbpir21vv37" d="M211.168000,207.579000C210.445000,212.929000,209.895000,218.409000,209.567000,223.869000L225.564000,224.935000C225.900000,219.823000,226.420000,214.710000,227.091000,209.738000L211.168000,207.579000Z" fill="rgb(255,255,255)" stroke="none" stroke-width="1"/><path id="e7xlbpir21vv38" d="M224.998000,240.203000L209,240.203000C209,245.682000,209.192000,251.185000,209.567000,256.571000L225.564000,255.474000C225.185000,250.435000,224.998000,245.346000,224.998000,240.203000Z" fill="rgb(255,255,255)" stroke="none" stroke-width="1"/><path id="e7xlbpir21vv39" d="M217.757000,175.517000C216.296000,180.774000,214.999000,186.133000,213.910000,191.436000L229.579000,194.635000C230.595000,189.683000,231.806000,184.684000,233.165000,179.790000L217.757000,175.517000Z" fill="rgb(255,255,255)" stroke="none" stroke-width="1"/><path id="e7xlbpir21vv40" d="M621.427000,305.556000L543.197000,300.955000C531.792000,300.287000,520.646000,304.525000,512.561000,312.602000L497.059000,328.119000L570.544000,356.361000L541.998000,384.912000L506.691000,384.912000C500.336000,384.900000,494.235000,387.431000,489.759000,391.942000L475.879000,405.811000L504.156000,422.777000L500.094000,426.847000C493.853000,432.873000,491.353000,441.794000,493.548000,450.187000C495.743000,458.576000,502.297000,465.126000,510.686000,467.325000C519.075000,469.520000,528,467.017000,534.022000,460.779000L538.088000,456.717000L555.058000,484.998000L568.947000,471.129000C573.466000,466.642000,575.997000,460.533000,575.977000,454.163000L575.977000,418.840000L604.516000,390.340000L632.793000,463.869000L648.318000,448.316000C656.403000,440.243000,660.636000,429.093000,659.957000,417.692000L655.356000,339.461000L681.098000,313.731000C690.159000,304.232000,690.159000,289.289000,681.098000,279.790000C671.725000,270.417000,656.532000,270.417000,647.158000,279.790000L621.427000,305.556000ZM525.938000,322.081000C530.562000,318.418000,536.374000,316.582000,542.263000,316.922000L606.254000,320.687000L582.929000,344.011000L525.938000,322.081000ZM501.758000,402.659000C503.179000,401.530000,504.941000,400.913000,506.757000,400.909000L526.039000,400.909000L515.826000,411.138000L501.758000,402.659000ZM560.003000,454.155000C559.999000,455.971000,559.382000,457.733000,558.253000,459.154000L549.751000,445.063000L559.956000,434.846000L560.003000,454.155000ZM643.991000,418.625000C644.338000,424.515000,642.499000,430.331000,638.831000,434.951000L616.901000,377.928000L640.225000,354.604000L643.991000,418.625000ZM669.780000,291.109000C672.896000,294.230000,672.896000,299.288000,669.780000,302.412000L522.719000,449.468000C519.599000,452.585000,514.541000,452.585000,511.420000,449.468000C508.393000,446.305000,508.393000,441.321000,511.420000,438.158000L658.477000,291.109000C661.601000,287.992000,666.655000,287.992000,669.780000,291.109000Z" fill="rgb(255,255,255)" stroke="none" stroke-width="1"/></g></g><path id="e7xlbpir21vv41" d="M66.522400,595.088000L41.274400,662L31.194400,662L5.946380,595.088000L15.258400,595.088000L36.282400,652.784000L57.306400,595.088000L66.522400,595.088000ZM92.133400,600.848000C90.469400,600.848000,89.061400,600.272000,87.909400,599.120000C86.757400,597.968000,86.181400,596.560000,86.181400,594.896000C86.181400,593.232000,86.757400,591.824000,87.909400,590.672000C89.061400,589.520000,90.469400,588.944000,92.133400,588.944000C93.733400,588.944000,95.077400,589.520000,96.165400,590.672000C97.317400,591.824000,97.893400,593.232000,97.893400,594.896000C97.893400,596.560000,97.317400,597.968000,96.165400,599.120000C95.077400,600.272000,93.733400,600.848000,92.133400,600.848000ZM96.357400,609.392000L96.357400,662L87.621400,662L87.621400,609.392000L96.357400,609.392000ZM141.390000,662.864000C137.358000,662.864000,133.742000,662.192000,130.542000,660.848000C127.342000,659.440000,124.814000,657.520000,122.958000,655.088000C121.102000,652.592000,120.078000,649.744000,119.886000,646.544000L128.910000,646.544000C129.166000,649.168000,130.382000,651.312000,132.558000,652.976000C134.798000,654.640000,137.710000,655.472000,141.294000,655.472000C144.622000,655.472000,147.246000,654.736000,149.166000,653.264000C151.086000,651.792000,152.046000,649.936000,152.046000,647.696000C152.046000,645.392000,151.022000,643.696000,148.974000,642.608000C146.926000,641.456000,143.758000,640.336000,139.470000,639.248000C135.566000,638.224000,132.366000,637.200000,129.870000,636.176000C127.438000,635.088000,125.326000,633.520000,123.534000,631.472000C121.806000,629.360000,120.942000,626.608000,120.942000,623.216000C120.942000,620.528000,121.742000,618.064000,123.342000,615.824000C124.942000,613.584000,127.214000,611.824000,130.158000,610.544000C133.102000,609.200000,136.462000,608.528000,140.238000,608.528000C146.062000,608.528000,150.766000,610,154.350000,612.944000C157.934000,615.888000,159.854000,619.920000,160.110000,625.040000L151.374000,625.040000C151.182000,622.288000,150.062000,620.080000,148.014000,618.416000C146.030000,616.752000,143.342000,615.920000,139.950000,615.920000C136.814000,615.920000,134.318000,616.592000,132.462000,617.936000C130.606000,619.280000,129.678000,621.040000,129.678000,623.216000C129.678000,624.944000,130.222000,626.384000,131.310000,627.536000C132.462000,628.624000,133.870000,629.520000,135.534000,630.224000C137.262000,630.864000,139.630000,631.600000,142.638000,632.432000C146.414000,633.456000,149.486000,634.480000,151.854000,635.504000C154.222000,636.464000,156.238000,637.936000,157.902000,639.920000C159.630000,641.904000,160.526000,644.496000,160.590000,647.696000C160.590000,650.576000,159.790000,653.168000,158.190000,655.472000C156.590000,657.776000,154.318000,659.600000,151.374000,660.944000C148.494000,662.224000,145.166000,662.864000,141.390000,662.864000ZM188.955000,600.848000C187.291000,600.848000,185.883000,600.272000,184.731000,599.120000C183.579000,597.968000,183.003000,596.560000,183.003000,594.896000C183.003000,593.232000,183.579000,591.824000,184.731000,590.672000C185.883000,589.520000,187.291000,588.944000,188.955000,588.944000C190.555000,588.944000,191.899000,589.520000,192.987000,590.672000C194.139000,591.824000,194.715000,593.232000,194.715000,594.896000C194.715000,596.560000,194.139000,597.968000,192.987000,599.120000C191.899000,600.272000,190.555000,600.848000,188.955000,600.848000ZM193.179000,609.392000L193.179000,662L184.443000,662L184.443000,609.392000L193.179000,609.392000ZM230.244000,616.592000L230.244000,647.600000C230.244000,650.160000,230.788000,651.984000,231.876000,653.072000C232.964000,654.096000,234.852000,654.608000,237.540000,654.608000L243.972000,654.608000L243.972000,662L236.100000,662C231.236000,662,227.588000,660.880000,225.156000,658.640000C222.724000,656.400000,221.508000,652.720000,221.508000,647.600000L221.508000,616.592000L214.692000,616.592000L214.692000,609.392000L221.508000,609.392000L221.508000,596.144000L230.244000,596.144000L230.244000,609.392000L243.972000,609.392000L243.972000,616.592000L230.244000,616.592000ZM270.588000,600.848000C268.924000,600.848000,267.516000,600.272000,266.364000,599.120000C265.212000,597.968000,264.636000,596.560000,264.636000,594.896000C264.636000,593.232000,265.212000,591.824000,266.364000,590.672000C267.516000,589.520000,268.924000,588.944000,270.588000,588.944000C272.188000,588.944000,273.532000,589.520000,274.620000,590.672000C275.772000,591.824000,276.348000,593.232000,276.348000,594.896000C276.348000,596.560000,275.772000,597.968000,274.620000,599.120000C273.532000,600.272000,272.188000,600.848000,270.588000,600.848000ZM274.812000,609.392000L274.812000,662L266.076000,662L266.076000,609.392000L274.812000,609.392000ZM326.853000,608.432000C333.253000,608.432000,338.437000,610.384000,342.405000,614.288000C346.373000,618.128000,348.357000,623.696000,348.357000,630.992000L348.357000,662L339.717000,662L339.717000,632.240000C339.717000,626.992000,338.405000,622.992000,335.781000,620.240000C333.157000,617.424000,329.573000,616.016000,325.029000,616.016000C320.421000,616.016000,316.741000,617.456000,313.989000,620.336000C311.301000,623.216000,309.957000,627.408000,309.957000,632.912000L309.957000,662L301.221000,662L301.221000,609.392000L309.957000,609.392000L309.957000,616.880000C311.685000,614.192000,314.021000,612.112000,316.965000,610.640000C319.973000,609.168000,323.269000,608.432000,326.853000,608.432000ZM395.844000,608.528000C400.388000,608.528000,404.356000,609.520000,407.748000,611.504000C411.204000,613.488000,413.764000,615.984000,415.428000,618.992000L415.428000,609.392000L424.260000,609.392000L424.260000,663.152000C424.260000,667.952000,423.236000,672.208000,421.188000,675.920000C419.140000,679.696000,416.196000,682.640000,412.356000,684.752000C408.580000,686.864000,404.164000,687.920000,399.108000,687.920000C392.196000,687.920000,386.436000,686.288000,381.828000,683.024000C377.220000,679.760000,374.500000,675.312000,373.668000,669.680000L382.308000,669.680000C383.268000,672.880000,385.252000,675.440000,388.260000,677.360000C391.268000,679.344000,394.884000,680.336000,399.108000,680.336000C403.908000,680.336000,407.812000,678.832000,410.820000,675.824000C413.892000,672.816000,415.428000,668.592000,415.428000,663.152000L415.428000,652.112000C413.700000,655.184000,411.140000,657.744000,407.748000,659.792000C404.356000,661.840000,400.388000,662.864000,395.844000,662.864000C391.172000,662.864000,386.916000,661.712000,383.076000,659.408000C379.300000,657.104000,376.324000,653.872000,374.148000,649.712000C371.972000,645.552000,370.884000,640.816000,370.884000,635.504000C370.884000,630.128000,371.972000,625.424000,374.148000,621.392000C376.324000,617.296000,379.300000,614.128000,383.076000,611.888000C386.916000,609.648000,391.172000,608.528000,395.844000,608.528000ZM415.428000,635.600000C415.428000,631.632000,414.628000,628.176000,413.028000,625.232000C411.428000,622.288000,409.252000,620.048000,406.500000,618.512000C403.812000,616.912000,400.836000,616.112000,397.572000,616.112000C394.308000,616.112000,391.332000,616.880000,388.644000,618.416000C385.956000,619.952000,383.812000,622.192000,382.212000,625.136000C380.612000,628.080000,379.812000,631.536000,379.812000,635.504000C379.812000,639.536000,380.612000,643.056000,382.212000,646.064000C383.812000,649.008000,385.956000,651.280000,388.644000,652.880000C391.332000,654.416000,394.308000,655.184000,397.572000,655.184000C400.836000,655.184000,403.812000,654.416000,406.500000,652.880000C409.252000,651.280000,411.428000,649.008000,413.028000,646.064000C414.628000,643.056000,415.428000,639.568000,415.428000,635.600000ZM525.480000,595.088000L525.480000,602.192000L496.392000,602.192000L496.392000,624.752000L520.008000,624.752000L520.008000,631.856000L496.392000,631.856000L496.392000,662L487.656000,662L487.656000,595.088000L525.480000,595.088000ZM556.287000,617.936000C557.823000,614.928000,559.999000,612.592000,562.815000,610.928000C565.695000,609.264000,569.183000,608.432000,573.279000,608.432000L573.279000,617.456000L570.975000,617.456000C561.183000,617.456000,556.287000,622.768000,556.287000,633.392000L556.287000,662L547.551000,662L547.551000,609.392000L556.287000,609.392000L556.287000,617.936000ZM599.396000,600.848000C597.732000,600.848000,596.324000,600.272000,595.172000,599.120000C594.020000,597.968000,593.444000,596.560000,593.444000,594.896000C593.444000,593.232000,594.020000,591.824000,595.172000,590.672000C596.324000,589.520000,597.732000,588.944000,599.396000,588.944000C600.996000,588.944000,602.340000,589.520000,603.428000,590.672000C604.580000,591.824000,605.156000,593.232000,605.156000,594.896000C605.156000,596.560000,604.580000,597.968000,603.428000,599.120000C602.340000,600.272000,600.996000,600.848000,599.396000,600.848000ZM603.620000,609.392000L603.620000,662L594.884000,662L594.884000,609.392000L603.620000,609.392000ZM678.029000,633.680000C678.029000,635.344000,677.933000,637.104000,677.741000,638.960000L635.693000,638.960000C636.013000,644.144000,637.773000,648.208000,640.973000,651.152000C644.237000,654.032000,648.173000,655.472000,652.781000,655.472000C656.557000,655.472000,659.693000,654.608000,662.189000,652.880000C664.749000,651.088000,666.541000,648.720000,667.565000,645.776000L676.973000,645.776000C675.565000,650.832000,672.749000,654.960000,668.525000,658.160000C664.301000,661.296000,659.053000,662.864000,652.781000,662.864000C647.789000,662.864000,643.309000,661.744000,639.341000,659.504000C635.437000,657.264000,632.365000,654.096000,630.125000,650C627.885000,645.840000,626.765000,641.040000,626.765000,635.600000C626.765000,630.160000,627.853000,625.392000,630.029000,621.296000C632.205000,617.200000,635.245000,614.064000,639.149000,611.888000C643.117000,609.648000,647.661000,608.528000,652.781000,608.528000C657.773000,608.528000,662.189000,609.616000,666.029000,611.792000C669.869000,613.968000,672.813000,616.976000,674.861000,620.816000C676.973000,624.592000,678.029000,628.880000,678.029000,633.680000ZM669.005000,631.856000C669.005000,628.528000,668.269000,625.680000,666.797000,623.312000C665.325000,620.880000,663.309000,619.056000,660.749000,617.840000C658.253000,616.560000,655.469000,615.920000,652.397000,615.920000C647.981000,615.920000,644.205000,617.328000,641.069000,620.144000C637.997000,622.960000,636.237000,626.864000,635.789000,631.856000L669.005000,631.856000ZM726.712000,608.432000C733.112000,608.432000,738.296000,610.384000,742.264000,614.288000C746.232000,618.128000,748.216000,623.696000,748.216000,630.992000L748.216000,662L739.576000,662L739.576000,632.240000C739.576000,626.992000,738.264000,622.992000,735.640000,620.240000C733.016000,617.424000,729.432000,616.016000,724.888000,616.016000C720.280000,616.016000,716.600000,617.456000,713.848000,620.336000C711.160000,623.216000,709.816000,627.408000,709.816000,632.912000L709.816000,662L701.080000,662L701.080000,609.392000L709.816000,609.392000L709.816000,616.880000C711.544000,614.192000,713.880000,612.112000,716.824000,610.640000C719.832000,609.168000,723.128000,608.432000,726.712000,608.432000ZM770.742000,635.504000C770.742000,630.128000,771.830000,625.424000,774.006000,621.392000C776.182000,617.296000,779.158000,614.128000,782.934000,611.888000C786.774000,609.648000,791.062000,608.528000,795.798000,608.528000C799.894000,608.528000,803.702000,609.488000,807.222000,611.408000C810.742000,613.264000,813.430000,615.728000,815.286000,618.800000L815.286000,590.960000L824.118000,590.960000L824.118000,662L815.286000,662L815.286000,652.112000C813.558000,655.248000,810.998000,657.840000,807.606000,659.888000C804.214000,661.872000,800.246000,662.864000,795.702000,662.864000C791.030000,662.864000,786.774000,661.712000,782.934000,659.408000C779.158000,657.104000,776.182000,653.872000,774.006000,649.712000C771.830000,645.552000,770.742000,640.816000,770.742000,635.504000ZM815.286000,635.600000C815.286000,631.632000,814.486000,628.176000,812.886000,625.232000C811.286000,622.288000,809.110000,620.048000,806.358000,618.512000C803.670000,616.912000,800.694000,616.112000,797.430000,616.112000C794.166000,616.112000,791.190000,616.880000,788.502000,618.416000C785.814000,619.952000,783.670000,622.192000,782.070000,625.136000C780.470000,628.080000,779.670000,631.536000,779.670000,635.504000C779.670000,639.536000,780.470000,643.056000,782.070000,646.064000C783.670000,649.008000,785.814000,651.280000,788.502000,652.880000C791.190000,654.416000,794.166000,655.184000,797.430000,655.184000C800.694000,655.184000,803.670000,654.416000,806.358000,652.880000C809.110000,651.280000,811.286000,649.008000,812.886000,646.064000C814.486000,643.056000,815.286000,639.568000,815.286000,635.600000ZM869.025000,662.864000C864.993000,662.864000,861.377000,662.192000,858.177000,660.848000C854.977000,659.440000,852.449000,657.520000,850.593000,655.088000C848.737000,652.592000,847.713000,649.744000,847.521000,646.544000L856.545000,646.544000C856.801000,649.168000,858.017000,651.312000,860.193000,652.976000C862.433000,654.640000,865.345000,655.472000,868.929000,655.472000C872.257000,655.472000,874.881000,654.736000,876.801000,653.264000C878.721000,651.792000,879.681000,649.936000,879.681000,647.696000C879.681000,645.392000,878.657000,643.696000,876.609000,642.608000C874.561000,641.456000,871.393000,640.336000,867.105000,639.248000C863.201000,638.224000,860.001000,637.200000,857.505000,636.176000C855.073000,635.088000,852.961000,633.520000,851.169000,631.472000C849.441000,629.360000,848.577000,626.608000,848.577000,623.216000C848.577000,620.528000,849.377000,618.064000,850.977000,615.824000C852.577000,613.584000,854.849000,611.824000,857.793000,610.544000C860.737000,609.200000,864.097000,608.528000,867.873000,608.528000C873.697000,608.528000,878.401000,610,881.985000,612.944000C885.569000,615.888000,887.489000,619.920000,887.745000,625.040000L879.009000,625.040000C878.817000,622.288000,877.697000,620.080000,875.649000,618.416000C873.665000,616.752000,870.977000,615.920000,867.585000,615.920000C864.449000,615.920000,861.953000,616.592000,860.097000,617.936000C858.241000,619.280000,857.313000,621.040000,857.313000,623.216000C857.313000,624.944000,857.857000,626.384000,858.945000,627.536000C860.097000,628.624000,861.505000,629.520000,863.169000,630.224000C864.897000,630.864000,867.265000,631.600000,870.273000,632.432000C874.049000,633.456000,877.121000,634.480000,879.489000,635.504000C881.857000,636.464000,883.873000,637.936000,885.537000,639.920000C887.265000,641.904000,888.161000,644.496000,888.225000,647.696000C888.225000,650.576000,887.425000,653.168000,885.825000,655.472000C884.225000,657.776000,881.953000,659.600000,879.009000,660.944000C876.129000,662.224000,872.801000,662.864000,869.025000,662.864000Z" fill="rgb(255,255,255)" stroke="none" stroke-width="1"/></g></svg>