<svg width="200" height="200" viewBox="0 0 200 200" fill="none" xmlns="http://www.w3.org/2000/svg" class="text-white hover:text-gray-800 fill-current">
<path d="M34.6679 64.6582H154.668C156.876 64.6582 158.668 61.8291 158.668 58.3291C158.668 54.8291 156.876 52 154.668 52H34.6679C32.4599 52 30.6679 54.8291 30.6679 58.3291C30.6679 61.8291 32.4559 64.6582 34.6679 64.6582Z"/>
<path d="M34.6679 152.658H154.668C156.876 152.658 158.668 149.829 158.668 146.329C158.668 142.829 156.876 140 154.668 140H34.6679C32.4599 140 30.6679 142.829 30.6679 146.329C30.6679 149.829 32.4559 152.658 34.6679 152.658Z" />
<path d="M34.6679 108.658H154.668C156.876 108.658 158.668 105.829 158.668 102.329C158.668 98.8291 156.876 96 154.668 96H34.6679C32.4599 96 30.6679 98.8291 30.6679 102.329C30.6679 105.829 32.4559 108.658 34.6679 108.658Z" />
</svg>
