<svg width="96" height="96" viewBox="0 0 96 96" fill="none" xmlns="http://www.w3.org/2000/svg">
<g clip-path="url(#clip0)">
<path fill-rule="evenodd" clip-rule="evenodd" d="M19.9395 0.20343C14.4618 0.20343 10.4087 6.19631 10.5901 12.6956C10.7642 18.9397 10.538 27.0265 8.90929 33.6214C7.27566 40.2356 4.51281 44.4255 0 44.9634V51.0366C4.51281 51.5746 7.27566 55.7644 8.90929 62.3787C10.538 68.9736 10.7642 77.0604 10.5901 83.3044C10.4087 89.8027 14.4618 95.7966 19.9403 95.7966H76.0678C81.5455 95.7966 85.5978 89.8038 85.4164 83.3044C85.2423 77.0604 85.4685 68.9736 87.0972 62.3787C88.7317 55.7644 91.4872 51.5746 96 51.0366V44.9634C91.4872 44.4255 88.7317 40.2356 87.0972 33.6214C85.4685 27.0275 85.2423 18.9397 85.4164 12.6956C85.5978 6.19733 81.5455 0.20343 76.0678 0.20343H19.9387H19.9395ZM65.0847 59.0472C65.0847 67.9963 59.7445 73.4238 50.8824 73.4238H35.7966C35.3651 73.4238 34.9512 73.2095 34.6461 72.828C34.3409 72.4466 34.1695 71.9293 34.1695 71.3899V24.6102C34.1695 24.0708 34.3409 23.5535 34.6461 23.172C34.9512 22.7906 35.3651 22.5763 35.7966 22.5763H50.7962C58.1858 22.5763 63.0354 27.5797 63.0354 35.2617C63.0354 40.6536 59.773 45.4811 55.6165 46.3261V46.6078C61.2748 47.3838 65.0847 52.2814 65.0847 59.0472ZM49.2374 29.0238H40.6357V44.2109H47.8804C53.4809 44.2109 56.5692 41.3919 56.5692 36.3529C56.5692 31.6312 53.9138 29.0238 49.2374 29.0238V29.0238ZM40.6357 50.2373V66.9743H49.5539C55.3847 66.9743 58.4738 64.0495 58.4738 58.5529C58.4738 53.0553 55.2984 50.2363 49.1788 50.2363H40.6357V50.2373Z" fill="#816BF8"/>
</g>
<defs>
<clipPath id="clip0">
<rect width="96" height="96" fill="white"/>
</clipPath>
</defs>
</svg>
