<svg width="96" height="96" viewBox="0 0 96 96" fill="none" xmlns="http://www.w3.org/2000/svg">
<path d="M44.8597 0.0750043C44.6535 0.0937525 43.9973 0.159371 43.4067 0.206241C29.7862 1.43425 17.028 8.78353 8.94758 20.0793C4.44802 26.3599 1.57018 33.4842 0.482783 41.0304C0.0984451 43.6645 0.0515747 44.4425 0.0515747 48.0141C0.0515747 51.5856 0.0984451 52.3636 0.482783 54.9978C3.08878 73.0054 15.9032 88.1352 33.2827 93.7409C36.3949 94.7439 39.6758 95.4282 43.4067 95.8407C44.8597 96 51.1403 96 52.5933 95.8407C59.0333 95.1282 64.489 93.5346 69.8698 90.788C70.6947 90.3662 70.854 90.2537 70.7415 90.16C70.6666 90.1037 67.1513 85.3885 62.9329 79.6891L55.2649 69.3307L45.6565 55.1103C40.3695 47.2923 36.0199 40.8991 35.9824 40.8991C35.9449 40.8898 35.9074 47.2079 35.8887 54.9228C35.8606 68.4308 35.8512 68.9745 35.6825 69.2932C35.4387 69.7526 35.2513 69.9401 34.8576 70.1463C34.5576 70.2963 34.2951 70.3244 32.8796 70.3244H31.2579L30.8267 70.0525C30.5455 69.8744 30.3392 69.6401 30.1986 69.3682L30.0018 68.9464L30.0205 50.1514L30.0486 31.3469L30.3392 30.9814C30.4892 30.7845 30.8079 30.5314 31.0329 30.4095C31.4173 30.2221 31.5672 30.2033 33.189 30.2033C35.1013 30.2033 35.42 30.2783 35.9168 30.822C36.0574 30.972 41.2601 38.8087 47.4844 48.2484C53.7088 57.6881 62.2205 70.5775 66.4013 76.905L73.9944 88.407L74.3787 88.1539C77.7815 85.9416 81.3811 82.7919 84.2309 79.511C90.2959 72.5461 94.2049 64.0531 95.5173 54.9978C95.9016 52.3636 95.9485 51.5856 95.9485 48.0141C95.9485 44.4425 95.9016 43.6645 95.5173 41.0304C92.9113 23.0228 80.0969 7.89299 62.7173 2.28729C59.652 1.29364 56.3898 0.609327 52.7339 0.196867C51.834 0.103127 45.6378 1.16485e-05 44.8597 0.0750043V0.0750043ZM64.489 29.0784C64.939 29.3034 65.3046 29.7346 65.4358 30.1846C65.5108 30.4283 65.5296 35.6403 65.5108 47.386L65.4827 64.2406L62.5111 59.6848L59.5301 55.129V42.8771C59.5301 34.956 59.5676 30.5033 59.6239 30.2877C59.7739 29.7627 60.102 29.3503 60.5519 29.1065C60.9363 28.9097 61.0769 28.8909 62.5486 28.8909C63.936 28.8909 64.1797 28.9097 64.489 29.0784V29.0784Z" fill="black"/>
<path d="M73.5256 88.6132C73.1975 88.8194 73.0944 88.9601 73.385 88.8007C73.5913 88.6788 73.9287 88.4257 73.8725 88.4164C73.8444 88.4164 73.685 88.5101 73.5256 88.6132ZM72.8788 89.0351C72.7101 89.1663 72.7101 89.1757 72.9163 89.0726C73.0288 89.0163 73.1225 88.9507 73.1225 88.9319C73.1225 88.8569 73.0757 88.8757 72.8788 89.0351ZM72.4101 89.3163C72.2414 89.4475 72.2414 89.4569 72.4476 89.3538C72.5601 89.2975 72.6538 89.2319 72.6538 89.2132C72.6538 89.1382 72.607 89.1569 72.4101 89.3163ZM71.9414 89.5975C71.7727 89.7287 71.7727 89.7381 71.9789 89.635C72.0914 89.5788 72.1851 89.5131 72.1851 89.4944C72.1851 89.4194 72.1383 89.4381 71.9414 89.5975ZM71.229 89.9725C70.8728 90.1599 70.8915 90.2349 71.2477 90.0568C71.4071 89.9725 71.529 89.8881 71.529 89.8693C71.529 89.8037 71.5196 89.8131 71.229 89.9725Z" fill="black"/>
</svg>
