<svg width="96" height="96" viewBox="0 0 96 96" fill="none" xmlns="http://www.w3.org/2000/svg">
<path d="M0 96H96V0H0V96Z" fill="#8FC84E"/>
<path opacity="0.1" d="M96 64.125C90.375 57 82.4372 46.1651 82.4372 46.1651L16.875 46.125L13.125 56.625L46.6875 96H96V64.125Z" fill="#010101"/>
<path fill-rule="evenodd" clip-rule="evenodd" d="M28.0393 45.9094C28.0393 45.6163 27.8852 45.3472 27.6326 45.2023L20.8952 41.3242C20.7812 41.2575 20.6533 41.2224 20.5241 41.2176H20.4544C20.3256 41.2224 20.1981 41.2575 20.0824 41.3242L13.3447 45.2023C13.0935 45.3471 12.9375 45.6161 12.9375 45.9094L12.9523 56.3497C12.9523 56.495 13.0277 56.6306 13.1554 56.7013C13.2804 56.7763 13.4351 56.7763 13.5596 56.7013L17.5637 54.4084C17.817 54.258 17.9709 53.9927 17.9709 53.702V48.825C17.9709 48.5342 18.1249 48.2646 18.3773 48.1204L20.0824 47.1386C20.2095 47.0644 20.3484 47.0286 20.4904 47.0286C20.6291 47.0286 20.7716 47.0642 20.8952 47.1386L22.5994 48.1204C22.8517 48.2646 23.0062 48.5342 23.0062 48.825V53.702C23.0062 53.9927 23.1624 54.26 23.4141 54.4084L27.417 56.7013C27.5428 56.7763 27.6996 56.7763 27.8241 56.7013C27.948 56.6306 28.0262 56.495 28.0262 56.3497L28.0393 45.9094Z" fill="white"/>
<path fill-rule="evenodd" clip-rule="evenodd" d="M59.5928 51.3458C59.5928 51.4185 59.5536 51.4854 59.4906 51.522L57.1764 52.8551C57.1134 52.8915 57.0366 52.8915 56.9736 52.8551L54.6591 51.522C54.5959 51.4854 54.5574 51.4183 54.5574 51.3458V48.6733C54.5574 48.6006 54.5959 48.5334 54.6587 48.4974L56.973 47.1608C57.0366 47.1244 57.1134 47.1244 57.177 47.1608L59.4906 48.4974C59.5536 48.5334 59.5928 48.6008 59.5928 48.6733V51.3458V51.3458ZM60.2181 31.5568C60.0917 31.4863 59.9381 31.488 59.8133 31.5611C59.6893 31.6343 59.613 31.7676 59.613 31.9119V42.2518C59.613 42.3533 59.5581 42.4476 59.4707 42.4984C59.3828 42.5496 59.274 42.5496 59.1853 42.4984L57.4984 41.5264C57.2462 41.3807 56.9364 41.3813 56.6852 41.5264L49.9449 45.4163C49.6929 45.5618 49.5377 45.8299 49.5377 46.1209V53.9021C49.5377 54.1929 49.6929 54.4613 49.9448 54.6073L56.6839 58.5C56.9363 58.6457 57.2466 58.6457 57.4982 58.5L64.2394 54.6073C64.4912 54.4614 64.6463 54.1929 64.6463 53.9021V34.5053C64.6463 34.2107 64.4869 33.9386 64.2289 33.7948L60.2181 31.5568Z" fill="white"/>
<path fill-rule="evenodd" clip-rule="evenodd" d="M82.4327 48.6039C82.6841 48.4581 82.8379 48.1901 82.8379 47.8999V46.0142C82.8379 45.7239 82.6841 45.4558 82.4327 45.3103L75.7361 41.4219C75.4845 41.2753 75.1729 41.2753 74.9205 41.4208L68.1825 45.3107C67.9305 45.4562 67.7758 45.7245 67.7758 46.0157V53.7943C67.7758 54.087 67.9329 54.3568 68.1866 54.5016L74.8826 58.3168C75.1292 58.4582 75.4326 58.4591 75.6803 58.3213L79.7304 56.0704C79.8594 55.9988 79.9393 55.8639 79.9399 55.7175C79.9408 55.5707 79.863 55.4351 79.7357 55.3616L72.9555 51.4701C72.8284 51.3977 72.7506 51.2627 72.7506 51.117V48.6789C72.7506 48.5342 72.828 48.3992 72.9544 48.3266L75.0647 47.1098C75.1901 47.0374 75.3452 47.0374 75.4708 47.1098L77.5823 48.3266C77.7083 48.3992 77.7861 48.534 77.7861 48.6789V50.5969C77.7861 50.7428 77.8639 50.877 77.9901 50.9503C78.1163 51.0225 78.2715 51.0219 78.3975 50.949L82.4327 48.6039Z" fill="white"/>
<path fill-rule="evenodd" clip-rule="evenodd" d="M38.3962 41.3798C38.6479 41.2348 38.9584 41.2348 39.21 41.3798L45.9493 45.2689C46.2015 45.4144 46.3566 45.6829 46.3566 45.9741V53.7583C46.3566 54.0489 46.2015 54.3172 45.9499 54.4635L39.2104 58.3556C38.9584 58.5011 38.6481 58.5011 38.3962 58.3556L31.6584 54.4635C31.4068 54.3174 31.2517 54.0489 31.2517 53.7583V45.9737C31.2517 45.6829 31.4068 45.4146 31.6588 45.2689L38.3962 41.3798Z" fill="white"/>
</svg>
