<svg width="96" height="96" viewBox="0 0 96 96" fill="none" xmlns="http://www.w3.org/2000/svg">
<path d="M96 48C96 50.9034 95.7414 53.7463 95.2478 56.5067C91.2334 78.9591 71.6063 96 48 96C30.2145 96 14.688 86.3274 6.39675 71.955C4.37288 68.4501 2.78212 64.6669 1.69275 60.6759C0.587812 56.6381 0 52.3866 0 48C0 21.4903 21.4903 0 48 0C69.8801 0 88.3395 14.6391 94.1211 34.6579C95.3438 38.8937 96 43.3704 96 48Z" fill="#8F9ED1"/>
<path d="M24.4074 33.4198H6.72975L1.69275 60.6759C2.78212 64.6669 4.37287 68.4501 6.39675 71.955H8.03662L9.98794 61.3989H19.7016C31.5291 61.3989 34.7089 50.7802 35.4711 45.5647C36.2351 40.3513 32.4206 33.4198 24.4074 33.4198ZM26.9721 46.4443C26.5391 49.4008 24.3546 55.4212 17.6503 55.4212H11.0929L14.0239 39.5578H20.6989C27.2053 39.5578 27.405 43.488 26.9721 46.4443Z" fill="#F2F2F2"/>
<path d="M94.1211 34.6579C92.6184 33.882 90.8276 33.4196 88.7587 33.4196H71.0811L63.9594 71.955H72.3877L74.3391 61.3989H84.0527C89.3132 61.3989 92.8631 59.2987 95.2474 56.5069C95.7414 53.7463 96 50.9034 96 48C96 43.3704 95.3437 38.8937 94.1211 34.6579ZM91.3234 46.4443C90.8904 49.4008 88.7059 55.4212 81.9995 55.4212H75.4442L78.3752 39.5578H85.0502C91.5566 39.5578 91.7563 43.488 91.3234 46.4443Z" fill="#F2F2F2"/>
<path d="M57.9821 33.5473C54.5518 33.5473 49.9751 33.5473 47.7452 33.5473L49.6667 23.1502H41.2731L34.1512 61.6845H42.5449L46.6404 39.5246C48.1536 39.5246 50.1636 39.5246 52.0048 39.5246C55.5656 39.5246 57.9821 40.2877 57.4732 43.5943C56.9646 46.9009 54.0396 61.5261 54.0396 61.5261H62.5603C62.5603 61.5261 65.8669 45.2477 66.3756 40.6691C66.8844 36.0907 62.6876 33.5473 57.9821 33.5473Z" fill="#F2F2F2"/>
</svg>
