<svg width="96" height="96" viewBox="0 0 96 96" fill="none" xmlns="http://www.w3.org/2000/svg">
<path d="M66.532 66.016C70.008 65.716 72.704 62.656 72.528 59C72.344 55.344 69.348 52.408 65.696 52.408H65.452C61.68 52.532 58.74 55.704 58.86 59.484C58.98 61.4 59.764 62.96 60.836 64.096C56.644 72.248 50.352 78.24 40.82 83.276C34.408 86.628 27.636 87.892 21.044 86.992C15.532 86.216 11.22 83.752 8.57999 79.8C4.62799 73.804 4.26799 67.336 7.55999 60.864C9.96399 56.188 13.556 52.772 15.956 51.092C15.356 49.536 14.636 46.9 14.276 44.924C-3.46801 57.632 -1.66401 75.008 3.72799 83.22C7.74399 89.212 15.956 93.044 24.944 93.044C27.34 93.044 29.86 92.868 32.316 92.268C47.9 89.272 59.704 79.924 66.476 66.14L66.532 66.016V66.016ZM87.924 51.032C78.64 40.124 64.972 34.132 49.388 34.132H47.348C46.336 31.916 44 30.536 41.36 30.536H41.18C37.408 30.536 34.468 33.776 34.592 37.548C34.712 41.14 37.768 44.14 41.424 44.14H41.72C44.42 44.02 46.756 42.34 47.712 39.944H49.932C59.168 39.944 67.912 42.64 75.884 47.912C81.992 51.928 86.372 57.2 88.828 63.496C90.98 68.648 90.864 73.684 88.648 77.884C85.232 84.472 79.476 87.952 71.868 87.952C67.072 87.952 62.4 86.452 60 85.376C58.564 86.568 56.164 88.548 54.424 89.748C59.696 92.14 65.032 93.52 70.184 93.52C81.872 93.52 90.556 86.932 93.856 80.576C97.448 73.384 97.152 61.28 87.98 50.912L87.924 51.032V51.032ZM25.96 68.168C26.076 71.764 29.132 74.76 32.792 74.76H33.032C36.868 74.64 39.804 71.468 39.624 67.688C39.624 64.092 36.508 61.1 32.852 61.1H32.608C32.368 61.1 32.012 61.1 31.708 61.216C26.736 52.824 24.636 43.832 25.42 34.132C25.896 26.82 28.296 20.464 32.608 15.192C36.204 10.696 42.976 8.47601 47.592 8.36001C60.536 8.11601 65.932 24.244 66.348 30.656L72.34 32.452C70.96 12.796 58.74 2.48401 47.052 2.48401C36.084 2.48401 25.96 10.456 21.88 22.144C16.308 37.728 19.964 52.708 26.796 64.696C26.2 65.476 25.84 66.852 25.96 68.168V68.168Z" fill="#734EB6"/>
</svg>
