<svg id="e6er3s51qvo71" xmlns="http://www.w3.org/2000/svg" xmlns:xlink="http://www.w3.org/1999/xlink" viewBox="0 0 705 687" shape-rendering="geometricPrecision" text-rendering="geometricPrecision"><style><![CDATA[#e6er3s51qvo73_to {animation: e6er3s51qvo73_to__to 1000ms linear infinite normal forwards}@keyframes e6er3s51qvo73_to__to { 0% {transform: translate(352.507996px,255px);animation-timing-function: cubic-bezier(0.390000,0.575000,0.565000,1)} 100% {transform: translate(352.507996px,350px)} }#e6er3s51qvo74_ts {animation: e6er3s51qvo74_ts__ts 1000ms linear infinite normal forwards}@keyframes e6er3s51qvo74_ts__ts { 0% {transform: translate(353.015991px,440px) scale(1,1)} 100% {transform: translate(353.015991px,440px) scale(1,0)} }]]></style><g id="e6er3s51qvo72"><g id="e6er3s51qvo73_to" transform="translate(352.507996,255)"><g id="e6er3s51qvo73" transform="translate(-352.507996,-260.028005)"><g id="e6er3s51qvo74_ts" transform="translate(353.015991,440) scale(1,1)"><path id="e6er3s51qvo74" d="M353.016000,511.992000C348.592000,511.992000,345.016000,508.416000,345.016000,503.992000L345.016000,455.984000C345.016000,451.560000,348.592000,447.984000,353.016000,447.984000C357.440000,447.984000,361.016000,451.560000,361.016000,455.984000L361.016000,503.992000C361.016000,508.416000,357.440000,511.992000,353.016000,511.992000Z" transform="translate(-353.015991,-479.988007)" fill="rgb(255,255,255)" stroke="none" stroke-width="1"/></g><path id="e6er3s51qvo75" d="M352,390.010000C347.576000,390.010000,344,386.434000,344,382.010000L344,334C344,329.576000,347.576000,326,352,326C356.424000,326,360,329.576000,360,334L360,382.010000C360,386.434000,356.424000,390.010000,352,390.010000Z" transform="matrix(1 0 0 1 0 -18.00500488281250)" fill="rgb(255,255,255)" stroke="none" stroke-width="1"/><path id="e6er3s51qvo76" d="M352,268.010000C347.576000,268.010000,344,264.434000,344,260.010000L344,212C344,207.576000,347.576000,204,352,204C356.424000,204,360,207.576000,360,212L360,260.010000C360,264.434000,356.424000,268.010000,352,268.010000Z" transform="matrix(1 0 0 1 0 3.99499511718750)" fill="rgb(255,255,255)" stroke="none" stroke-width="1"/><path id="e6er3s51qvo77" d="M353.016000,160.056000C348.592000,160.056000,345.016000,156.480000,345.016000,152.056000L345.016000,104.048000C345.016000,99.624000,348.592000,96.048000,353.016000,96.048000C357.440000,96.048000,361.016000,99.624000,361.016000,104.048000L361.016000,152.056000C361.016000,156.480000,357.440000,160.056000,353.016000,160.056000Z" transform="matrix(1 0 0 1 0 11.94800186157227)" fill="rgb(255,255,255)" stroke="none" stroke-width="1"/><path id="e6er3s51qvo78" d="M353.016000,72.072000C348.592000,72.072000,345.016000,68.496000,345.016000,64.072000L345.016000,16.064000C345.016000,11.640000,348.592000,8.064000,353.016000,8.064000C357.440000,8.064000,361.016000,11.640000,361.016000,16.064000L361.016000,64.072000C361.016000,68.496000,357.440000,72.072000,353.016000,72.072000Z" transform="matrix(1 0 0 1 0 -0.06799793243408)" fill="rgb(255,255,255)" stroke="none" stroke-width="1"/><path id="e6er3s51qvo79" d="M353.016000,72.072000C348.592000,72.072000,345.016000,68.496000,345.016000,64.072000L345.016000,16.064000C345.016000,11.640000,348.592000,8.064000,353.016000,8.064000C357.440000,8.064000,361.016000,11.640000,361.016000,16.064000L361.016000,64.072000C361.016000,68.496000,357.440000,72.072000,353.016000,72.072000Z" transform="matrix(1 0 0 1 0 -100.06799793243408)" fill="rgb(255,255,255)" stroke="none" stroke-width="1"/></g></g><g id="e6er3s51qvo710" transform="matrix(1 0 0 1 0 -157.00000244140625)"><path id="e6er3s51qvo711" d="M472.984000,495.880000C468.560000,495.880000,464.984000,492.304000,464.984000,487.880000L464.984000,344C464.984000,339.576000,468.560000,336,472.984000,336C477.408000,336,480.984000,339.576000,480.984000,344L480.984000,487.880000C480.984000,492.304000,477.408000,495.880000,472.984000,495.880000Z" fill="rgb(255,255,255)" stroke="none" stroke-width="1"/><path id="e6er3s51qvo712" d="M472.984000,352C468.560000,351.992000,464.984000,348.416000,464.984000,343.992000C464.992000,337.576000,462.496000,331.544000,457.968000,327.024000C453.440000,322.496000,447.408000,320,440.984000,320C436.560000,320,432.984000,316.424000,432.984000,312C432.984000,307.576000,436.560000,304,440.984000,304C451.680000,304,461.728000,308.160000,469.280000,315.704000C476.832000,323.256000,480.992000,333.312000,480.984000,344.008000C480.984000,348.416000,477.400000,352,472.984000,352Z" fill="rgb(255,255,255)" stroke="none" stroke-width="1"/><path id="e6er3s51qvo713" d="M377,495.888000C372.576000,495.888000,369,492.312000,369,487.888000L369,344C369,339.576000,372.576000,336,377,336C381.424000,336,385,339.576000,385,344L385,487.888000C385,492.312000,381.424000,495.888000,377,495.888000Z" fill="rgb(255,255,255)" stroke="none" stroke-width="1"/><path id="e6er3s51qvo714" d="M377,352C372.576000,352,369,348.424000,369,344C369,321.944000,386.952000,304,409.016000,304C413.440000,304,417.016000,307.576000,417.016000,312C417.016000,316.424000,413.440000,320,409.016000,320C395.776000,320,385,330.768000,385,344C385,348.416000,381.424000,352,377,352Z" fill="rgb(255,255,255)" stroke="none" stroke-width="1"/><path id="e6er3s51qvo715" d="M456.984000,511.880000L393,511.880000C388.576000,511.880000,385,508.304000,385,503.880000C385,499.456000,388.576000,495.880000,393,495.880000L456.984000,495.880000C461.408000,495.880000,464.984000,499.456000,464.984000,503.880000C464.984000,508.304000,461.408000,511.880000,456.984000,511.880000Z" fill="rgb(255,255,255)" stroke="none" stroke-width="1"/><path id="e6er3s51qvo716" d="M448.984000,479.896000L401.016000,479.896000C396.600000,479.896000,393.016000,476.320000,393.016000,471.896000L393,391.976000C393,389.856000,393.840000,387.816000,395.344000,386.320000C396.848000,384.824000,398.872000,383.976000,401,383.976000L449,383.968000C451.120000,383.968000,453.160000,384.808000,454.656000,386.312000C456.152000,387.816000,457,389.848000,457,391.968000L456.984000,471.896000C456.984000,476.320000,453.400000,479.896000,448.984000,479.896000ZM409.016000,463.896000L440.984000,463.896000L441,399.968000L409,399.976000L409.016000,463.896000Z" fill="rgb(255,255,255)" stroke="none" stroke-width="1"/><path id="e6er3s51qvo717" d="M401,399.976000C397.648000,399.976000,394.528000,397.856000,393.416000,394.504000L385.416000,370.504000C384.016000,366.312000,386.280000,361.776000,390.472000,360.384000C394.696000,358.976000,399.192000,361.248000,400.592000,365.440000L408.592000,389.440000C409.992000,393.632000,407.728000,398.168000,403.536000,399.560000C402.688000,399.840000,401.832000,399.976000,401,399.976000Z" fill="rgb(255,255,255)" stroke="none" stroke-width="1"/><path id="e6er3s51qvo718" d="M449,399.968000C448.168000,399.968000,447.312000,399.832000,446.472000,399.552000C442.288000,398.160000,440.016000,393.632000,441.416000,389.432000L449.416000,365.440000C450.816000,361.256000,455.296000,358.976000,459.536000,360.384000C463.720000,361.776000,465.992000,366.304000,464.592000,370.504000L456.592000,394.496000C455.472000,397.848000,452.352000,399.968000,449,399.968000Z" fill="rgb(255,255,255)" stroke="none" stroke-width="1"/><path id="e6er3s51qvo719" d="M457.008000,375.976000C456.920000,375.976000,456.840000,375.976000,456.752000,375.968000C453.584000,375.872000,450.904000,373.944000,449.688000,371.232000C448.056000,370.360000,442.040000,367.984000,425,367.976000C407.960000,367.976000,401.944000,370.352000,400.312000,371.224000C399.104000,373.944000,396.424000,375.872000,393.248000,375.968000C393.160000,375.976000,393.080000,375.976000,392.992000,375.976000C388.696000,375.976000,385.144000,372.552000,385.008000,368.224000C384.960000,366.944000,385.208000,363.608000,388.368000,360.352000C393.904000,354.640000,405.544000,351.976000,425,351.976000C444.464000,351.984000,456.104000,354.640000,461.632000,360.360000C464.792000,363.608000,465.040000,366.944000,464.992000,368.224000C464.856000,372.552000,461.304000,375.976000,457.008000,375.976000Z" fill="rgb(255,255,255)" stroke="none" stroke-width="1"/><path id="e6er3s51qvo720" d="M440.984000,320L409.016000,320C404.592000,320,401.016000,316.424000,401.016000,312C401.016000,307.576000,404.592000,304,409.016000,304L440.984000,304C445.408000,304,448.984000,307.576000,448.984000,312C448.984000,316.424000,445.408000,320,440.984000,320Z" fill="rgb(255,255,255)" stroke="none" stroke-width="1"/><path id="e6er3s51qvo721" d="M377,399.976000L369,399.976000C364.576000,399.976000,361,396.400000,361,391.976000C361,387.552000,364.576000,383.976000,369,383.976000L377,383.976000C381.424000,383.976000,385,387.552000,385,391.976000C385,396.400000,381.424000,399.976000,377,399.976000Z" fill="rgb(255,255,255)" stroke="none" stroke-width="1"/><path id="e6er3s51qvo722" d="M481,399.976000L473,399.976000C468.576000,399.976000,465,396.400000,465,391.976000C465,387.552000,468.576000,383.976000,473,383.976000L481,383.976000C485.424000,383.976000,489,387.552000,489,391.976000C489,396.400000,485.424000,399.976000,481,399.976000Z" fill="rgb(255,255,255)" stroke="none" stroke-width="1"/><path id="e6er3s51qvo723" d="M467.368000,507.448000C464.784000,507.448000,462.240000,506.200000,460.704000,503.888000L442.328000,476.336000C439.872000,472.664000,440.864000,467.696000,444.544000,465.240000C448.200000,462.784000,453.184000,463.776000,455.640000,467.456000L474.016000,495.008000C476.472000,498.680000,475.480000,503.648000,471.800000,506.104000C470.440000,507.016000,468.888000,507.448000,467.368000,507.448000Z" fill="rgb(255,255,255)" stroke="none" stroke-width="1"/><path id="e6er3s51qvo724" d="M382.616000,507.448000C381.096000,507.448000,379.544000,507.008000,378.184000,506.104000C374.504000,503.648000,373.512000,498.680000,375.968000,495.008000L394.344000,467.472000C396.808000,463.800000,401.768000,462.800000,405.440000,465.256000C409.120000,467.712000,410.112000,472.680000,407.656000,476.352000L389.280000,503.888000C387.736000,506.200000,385.200000,507.448000,382.616000,507.448000Z" fill="rgb(255,255,255)" stroke="none" stroke-width="1"/><path id="e6er3s51qvo725" d="M456.984000,511.880000C452.560000,511.880000,448.984000,508.304000,448.984000,503.880000C448.984000,499.456000,452.560000,495.880000,456.984000,495.880000C461.408000,495.880000,465,492.296000,465,487.888000C465,483.464000,468.576000,479.888000,473,479.888000C477.424000,479.888000,481,483.464000,481,487.888000C481,501.112000,470.224000,511.880000,456.984000,511.880000Z" fill="rgb(255,255,255)" stroke="none" stroke-width="1"/><path id="e6er3s51qvo726" d="M393,511.880000C379.768000,511.880000,369,501.112000,369,487.888000C369,483.464000,372.576000,479.888000,377,479.888000C381.424000,479.888000,385,483.464000,385,487.888000C385,492.296000,388.584000,495.880000,393,495.880000C397.424000,495.880000,401,499.456000,401,503.880000C401,508.304000,397.424000,511.880000,393,511.880000Z" fill="rgb(255,255,255)" stroke="none" stroke-width="1"/></g><g id="e6er3s51qvo727"><path id="e6er3s51qvo728" d="M168.968000,512C164.544000,512,160.968000,508.424000,160.968000,504L160.968000,8C160.968000,3.576000,164.544000,0,168.968000,0C173.392000,0,176.968000,3.576000,176.968000,8L176.968000,504C176.968000,508.424000,173.392000,512,168.968000,512Z" fill="rgb(255,255,255)" stroke="none" stroke-width="1"/><path id="e6er3s51qvo729" d="M192.968000,512C188.544000,512,184.968000,508.424000,184.968000,504L184.968000,8C184.968000,3.576000,188.544000,0,192.968000,0C197.392000,0,200.968000,3.576000,200.968000,8L200.968000,504C200.968000,508.424000,197.392000,512,192.968000,512Z" fill="rgb(255,255,255)" stroke="none" stroke-width="1"/><path id="e6er3s51qvo730" d="M513.032000,512C508.608000,512,505.032000,508.424000,505.032000,504L505.032000,8C505.032000,3.576000,508.608000,0,513.032000,0C517.456000,0,521.032000,3.576000,521.032000,8L521.032000,504C521.032000,508.424000,517.456000,512,513.032000,512Z" fill="rgb(255,255,255)" stroke="none" stroke-width="1"/><path id="e6er3s51qvo731" d="M537.032000,512C532.608000,512,529.032000,508.424000,529.032000,504L529.032000,8C529.032000,3.576000,532.608000,0,537.032000,0C541.456000,0,545.032000,3.576000,545.032000,8L545.032000,504C545.032000,508.424000,541.456000,512,537.032000,512Z" fill="rgb(255,255,255)" stroke="none" stroke-width="1"/><path id="e6er3s51qvo732" d="M69.100500,639.896000L92.524500,639.896000L92.524500,647L60.364500,647L60.364500,580.088000L69.100500,580.088000L69.100500,639.896000ZM136.266000,647.864000C131.338000,647.864000,126.858000,646.744000,122.826000,644.504000C118.858000,642.264000,115.722000,639.096000,113.418000,635C111.178000,630.840000,110.058000,626.040000,110.058000,620.600000C110.058000,615.224000,111.210000,610.488000,113.514000,606.392000C115.882000,602.232000,119.082000,599.064000,123.114000,596.888000C127.146000,594.648000,131.658000,593.528000,136.650000,593.528000C141.642000,593.528000,146.154000,594.648000,150.186000,596.888000C154.218000,599.064000,157.386000,602.200000,159.690000,606.296000C162.058000,610.392000,163.242000,615.160000,163.242000,620.600000C163.242000,626.040000,162.026000,630.840000,159.594000,635C157.226000,639.096000,153.994000,642.264000,149.898000,644.504000C145.802000,646.744000,141.258000,647.864000,136.266000,647.864000ZM136.266000,640.184000C139.402000,640.184000,142.346000,639.448000,145.098000,637.976000C147.850000,636.504000,150.058000,634.296000,151.722000,631.352000C153.450000,628.408000,154.314000,624.824000,154.314000,620.600000C154.314000,616.376000,153.482000,612.792000,151.818000,609.848000C150.154000,606.904000,147.978000,604.728000,145.290000,603.320000C142.602000,601.848000,139.690000,601.112000,136.554000,601.112000C133.354000,601.112000,130.410000,601.848000,127.722000,603.320000C125.098000,604.728000,122.986000,606.904000,121.386000,609.848000C119.786000,612.792000,118.986000,616.376000,118.986000,620.600000C118.986000,624.888000,119.754000,628.504000,121.290000,631.448000C122.890000,634.392000,125.002000,636.600000,127.626000,638.072000C130.250000,639.480000,133.130000,640.184000,136.266000,640.184000ZM211.880000,593.432000C218.280000,593.432000,223.464000,595.384000,227.432000,599.288000C231.400000,603.128000,233.384000,608.696000,233.384000,615.992000L233.384000,647L224.744000,647L224.744000,617.240000C224.744000,611.992000,223.432000,607.992000,220.808000,605.240000C218.184000,602.424000,214.600000,601.016000,210.056000,601.016000C205.448000,601.016000,201.768000,602.456000,199.016000,605.336000C196.328000,608.216000,194.984000,612.408000,194.984000,617.912000L194.984000,647L186.248000,647L186.248000,594.392000L194.984000,594.392000L194.984000,601.880000C196.712000,599.192000,199.048000,597.112000,201.992000,595.640000C205,594.168000,208.296000,593.432000,211.880000,593.432000ZM280.871000,593.528000C285.415000,593.528000,289.383000,594.520000,292.775000,596.504000C296.231000,598.488000,298.791000,600.984000,300.455000,603.992000L300.455000,594.392000L309.287000,594.392000L309.287000,648.152000C309.287000,652.952000,308.263000,657.208000,306.215000,660.920000C304.167000,664.696000,301.223000,667.640000,297.383000,669.752000C293.607000,671.864000,289.191000,672.920000,284.135000,672.920000C277.223000,672.920000,271.463000,671.288000,266.855000,668.024000C262.247000,664.760000,259.527000,660.312000,258.695000,654.680000L267.335000,654.680000C268.295000,657.880000,270.279000,660.440000,273.287000,662.360000C276.295000,664.344000,279.911000,665.336000,284.135000,665.336000C288.935000,665.336000,292.839000,663.832000,295.847000,660.824000C298.919000,657.816000,300.455000,653.592000,300.455000,648.152000L300.455000,637.112000C298.727000,640.184000,296.167000,642.744000,292.775000,644.792000C289.383000,646.840000,285.415000,647.864000,280.871000,647.864000C276.199000,647.864000,271.943000,646.712000,268.103000,644.408000C264.327000,642.104000,261.351000,638.872000,259.175000,634.712000C256.999000,630.552000,255.911000,625.816000,255.911000,620.504000C255.911000,615.128000,256.999000,610.424000,259.175000,606.392000C261.351000,602.296000,264.327000,599.128000,268.103000,596.888000C271.943000,594.648000,276.199000,593.528000,280.871000,593.528000ZM300.455000,620.600000C300.455000,616.632000,299.655000,613.176000,298.055000,610.232000C296.455000,607.288000,294.279000,605.048000,291.527000,603.512000C288.839000,601.912000,285.863000,601.112000,282.599000,601.112000C279.335000,601.112000,276.359000,601.880000,273.671000,603.416000C270.983000,604.952000,268.839000,607.192000,267.239000,610.136000C265.639000,613.080000,264.839000,616.536000,264.839000,620.504000C264.839000,624.536000,265.639000,628.056000,267.239000,631.064000C268.839000,634.008000,270.983000,636.280000,273.671000,637.880000C276.359000,639.416000,279.335000,640.184000,282.599000,640.184000C285.863000,640.184000,288.839000,639.416000,291.527000,637.880000C294.279000,636.280000,296.455000,634.008000,298.055000,631.064000C299.655000,628.056000,300.455000,624.568000,300.455000,620.600000ZM393.515000,580.088000C400.811000,580.088000,407.115000,581.464000,412.427000,584.216000C417.803000,586.904000,421.899000,590.776000,424.715000,595.832000C427.595000,600.888000,429.035000,606.840000,429.035000,613.688000C429.035000,620.536000,427.595000,626.488000,424.715000,631.544000C421.899000,636.536000,417.803000,640.376000,412.427000,643.064000C407.115000,645.688000,400.811000,647,393.515000,647L372.683000,647L372.683000,580.088000L393.515000,580.088000ZM393.515000,639.800000C402.155000,639.800000,408.747000,637.528000,413.291000,632.984000C417.835000,628.376000,420.107000,621.944000,420.107000,613.688000C420.107000,605.368000,417.803000,598.872000,413.195000,594.200000C408.651000,589.528000,402.091000,587.192000,393.515000,587.192000L381.419000,587.192000L381.419000,639.800000L393.515000,639.800000ZM460.814000,602.936000C462.350000,599.928000,464.526000,597.592000,467.342000,595.928000C470.222000,594.264000,473.710000,593.432000,477.806000,593.432000L477.806000,602.456000L475.502000,602.456000C465.710000,602.456000,460.814000,607.768000,460.814000,618.392000L460.814000,647L452.078000,647L452.078000,594.392000L460.814000,594.392000L460.814000,602.936000ZM503.923000,585.848000C502.259000,585.848000,500.851000,585.272000,499.699000,584.120000C498.547000,582.968000,497.971000,581.560000,497.971000,579.896000C497.971000,578.232000,498.547000,576.824000,499.699000,575.672000C500.851000,574.520000,502.259000,573.944000,503.923000,573.944000C505.523000,573.944000,506.867000,574.520000,507.955000,575.672000C509.107000,576.824000,509.683000,578.232000,509.683000,579.896000C509.683000,581.560000,509.107000,582.968000,507.955000,584.120000C506.867000,585.272000,505.523000,585.848000,503.923000,585.848000ZM508.147000,594.392000L508.147000,647L499.411000,647L499.411000,594.392000L508.147000,594.392000ZM554.140000,638.936000L570.460000,594.392000L579.772000,594.392000L559.132000,647L548.956000,647L528.316000,594.392000L537.724000,594.392000L554.140000,638.936000ZM647.888000,618.680000C647.888000,620.344000,647.792000,622.104000,647.600000,623.960000L605.552000,623.960000C605.872000,629.144000,607.632000,633.208000,610.832000,636.152000C614.096000,639.032000,618.032000,640.472000,622.640000,640.472000C626.416000,640.472000,629.552000,639.608000,632.048000,637.880000C634.608000,636.088000,636.400000,633.720000,637.424000,630.776000L646.832000,630.776000C645.424000,635.832000,642.608000,639.960000,638.384000,643.160000C634.160000,646.296000,628.912000,647.864000,622.640000,647.864000C617.648000,647.864000,613.168000,646.744000,609.200000,644.504000C605.296000,642.264000,602.224000,639.096000,599.984000,635C597.744000,630.840000,596.624000,626.040000,596.624000,620.600000C596.624000,615.160000,597.712000,610.392000,599.888000,606.296000C602.064000,602.200000,605.104000,599.064000,609.008000,596.888000C612.976000,594.648000,617.520000,593.528000,622.640000,593.528000C627.632000,593.528000,632.048000,594.616000,635.888000,596.792000C639.728000,598.968000,642.672000,601.976000,644.720000,605.816000C646.832000,609.592000,647.888000,613.880000,647.888000,618.680000ZM638.864000,616.856000C638.864000,613.528000,638.128000,610.680000,636.656000,608.312000C635.184000,605.880000,633.168000,604.056000,630.608000,602.840000C628.112000,601.560000,625.328000,600.920000,622.256000,600.920000C617.840000,600.920000,614.064000,602.328000,610.928000,605.144000C607.856000,607.960000,606.096000,611.864000,605.648000,616.856000L638.864000,616.856000Z" fill="rgb(255,255,255)" stroke="none" stroke-width="1"/></g></g></svg>