<svg id="et9p08muimof1" xmlns="http://www.w3.org/2000/svg" xmlns:xlink="http://www.w3.org/1999/xlink" viewBox="0 0 478 659" shape-rendering="geometricPrecision" text-rendering="geometricPrecision"><style><![CDATA[#et9p08muimof4_to {animation: et9p08muimof4_to__to 2000ms linear infinite normal forwards}@keyframes et9p08muimof4_to__to { 0% {transform: translate(408.762677px,449.135903px);animation-timing-function: cubic-bezier(0.420000,0,1,1)} 25% {transform: translate(390.440000px,449.135903px);animation-timing-function: cubic-bezier(0.420000,0,1,1)} 50% {transform: translate(390.440000px,420.140000px);animation-timing-function: cubic-bezier(0.420000,0,1,1)} 75% {transform: translate(408.760000px,420.140000px);animation-timing-function: cubic-bezier(0.420000,0,1,1)} 100% {transform: translate(408.760000px,449.140000px)} }#et9p08muimof6_to {animation: et9p08muimof6_to__to 2000ms linear infinite normal forwards}@keyframes et9p08muimof6_to__to { 0% {transform: translate(83.469976px,417.371891px);animation-timing-function: cubic-bezier(0.420000,0,0.580000,1)} 50% {transform: translate(157.819275px,417.370000px);animation-timing-function: cubic-bezier(0.420000,0,0.580000,1)} 100% {transform: translate(83.468752px,417.370000px)} }]]></style><g id="et9p08muimof2"><path id="et9p08muimof3" d="M65.798400,633L49.862400,605.640000L39.302400,605.640000L39.302400,633L30.566400,633L30.566400,566.088000L52.166400,566.088000C57.222400,566.088000,61.478400,566.952000,64.934400,568.680000C68.454400,570.408000,71.078400,572.744000,72.806400,575.688000C74.534400,578.632000,75.398400,581.992000,75.398400,585.768000C75.398400,590.376000,74.054400,594.440000,71.366400,597.960000C68.742400,601.480000,64.774400,603.816000,59.462400,604.968000L76.262400,633L65.798400,633ZM39.302400,598.632000L52.166400,598.632000C56.902400,598.632000,60.454400,597.480000,62.822400,595.176000C65.190400,592.808000,66.374400,589.672000,66.374400,585.768000C66.374400,581.800000,65.190400,578.728000,62.822400,576.552000C60.518400,574.376000,56.966400,573.288000,52.166400,573.288000L39.302400,573.288000L39.302400,598.632000ZM147.149000,580.392000L147.149000,633L138.413000,633L138.413000,625.224000C136.749000,627.912000,134.413000,630.024000,131.405000,631.560000C128.461000,633.032000,125.197000,633.768000,121.613000,633.768000C117.517000,633.768000,113.837000,632.936000,110.573000,631.272000C107.309000,629.544000,104.717000,626.984000,102.797000,623.592000C100.941000,620.200000,100.013000,616.072000,100.013000,611.208000L100.013000,580.392000L108.653000,580.392000L108.653000,610.056000C108.653000,615.240000,109.965000,619.240000,112.589000,622.056000C115.213000,624.808000,118.797000,626.184000,123.341000,626.184000C128.013000,626.184000,131.693000,624.744000,134.381000,621.864000C137.069000,618.984000,138.413000,614.792000,138.413000,609.288000L138.413000,580.392000L147.149000,580.392000ZM199.051000,579.432000C205.451000,579.432000,210.635000,581.384000,214.603000,585.288000C218.571000,589.128000,220.555000,594.696000,220.555000,601.992000L220.555000,633L211.915000,633L211.915000,603.240000C211.915000,597.992000,210.603000,593.992000,207.979000,591.240000C205.355000,588.424000,201.771000,587.016000,197.227000,587.016000C192.619000,587.016000,188.939000,588.456000,186.187000,591.336000C183.499000,594.216000,182.155000,598.408000,182.155000,603.912000L182.155000,633L173.419000,633L173.419000,580.392000L182.155000,580.392000L182.155000,587.880000C183.883000,585.192000,186.219000,583.112000,189.163000,581.640000C192.171000,580.168000,195.467000,579.432000,199.051000,579.432000ZM271.977000,579.432000C278.377000,579.432000,283.561000,581.384000,287.529000,585.288000C291.497000,589.128000,293.481000,594.696000,293.481000,601.992000L293.481000,633L284.841000,633L284.841000,603.240000C284.841000,597.992000,283.529000,593.992000,280.905000,591.240000C278.281000,588.424000,274.697000,587.016000,270.153000,587.016000C265.545000,587.016000,261.865000,588.456000,259.113000,591.336000C256.425000,594.216000,255.081000,598.408000,255.081000,603.912000L255.081000,633L246.345000,633L246.345000,580.392000L255.081000,580.392000L255.081000,587.880000C256.809000,585.192000,259.145000,583.112000,262.089000,581.640000C265.097000,580.168000,268.393000,579.432000,271.977000,579.432000ZM323.783000,571.848000C322.119000,571.848000,320.711000,571.272000,319.559000,570.120000C318.407000,568.968000,317.831000,567.560000,317.831000,565.896000C317.831000,564.232000,318.407000,562.824000,319.559000,561.672000C320.711000,560.520000,322.119000,559.944000,323.783000,559.944000C325.383000,559.944000,326.727000,560.520000,327.815000,561.672000C328.967000,562.824000,329.543000,564.232000,329.543000,565.896000C329.543000,567.560000,328.967000,568.968000,327.815000,570.120000C326.727000,571.272000,325.383000,571.848000,323.783000,571.848000ZM328.007000,580.392000L328.007000,633L319.271000,633L319.271000,580.392000L328.007000,580.392000ZM380.048000,579.432000C386.448000,579.432000,391.632000,581.384000,395.600000,585.288000C399.568000,589.128000,401.552000,594.696000,401.552000,601.992000L401.552000,633L392.912000,633L392.912000,603.240000C392.912000,597.992000,391.600000,593.992000,388.976000,591.240000C386.352000,588.424000,382.768000,587.016000,378.224000,587.016000C373.616000,587.016000,369.936000,588.456000,367.184000,591.336000C364.496000,594.216000,363.152000,598.408000,363.152000,603.912000L363.152000,633L354.416000,633L354.416000,580.392000L363.152000,580.392000L363.152000,587.880000C364.880000,585.192000,367.216000,583.112000,370.160000,581.640000C373.168000,580.168000,376.464000,579.432000,380.048000,579.432000ZM449.039000,579.528000C453.583000,579.528000,457.551000,580.520000,460.943000,582.504000C464.399000,584.488000,466.959000,586.984000,468.623000,589.992000L468.623000,580.392000L477.455000,580.392000L477.455000,634.152000C477.455000,638.952000,476.431000,643.208000,474.383000,646.920000C472.335000,650.696000,469.391000,653.640000,465.551000,655.752000C461.775000,657.864000,457.359000,658.920000,452.303000,658.920000C445.391000,658.920000,439.631000,657.288000,435.023000,654.024000C430.415000,650.760000,427.695000,646.312000,426.863000,640.680000L435.503000,640.680000C436.463000,643.880000,438.447000,646.440000,441.455000,648.360000C444.463000,650.344000,448.079000,651.336000,452.303000,651.336000C457.103000,651.336000,461.007000,649.832000,464.015000,646.824000C467.087000,643.816000,468.623000,639.592000,468.623000,634.152000L468.623000,623.112000C466.895000,626.184000,464.335000,628.744000,460.943000,630.792000C457.551000,632.840000,453.583000,633.864000,449.039000,633.864000C444.367000,633.864000,440.111000,632.712000,436.271000,630.408000C432.495000,628.104000,429.519000,624.872000,427.343000,620.712000C425.167000,616.552000,424.079000,611.816000,424.079000,606.504000C424.079000,601.128000,425.167000,596.424000,427.343000,592.392000C429.519000,588.296000,432.495000,585.128000,436.271000,582.888000C440.111000,580.648000,444.367000,579.528000,449.039000,579.528000ZM468.623000,606.600000C468.623000,602.632000,467.823000,599.176000,466.223000,596.232000C464.623000,593.288000,462.447000,591.048000,459.695000,589.512000C457.007000,587.912000,454.031000,587.112000,450.767000,587.112000C447.503000,587.112000,444.527000,587.880000,441.839000,589.416000C439.151000,590.952000,437.007000,593.192000,435.407000,596.136000C433.807000,599.080000,433.007000,602.536000,433.007000,606.504000C433.007000,610.536000,433.807000,614.056000,435.407000,617.064000C437.007000,620.008000,439.151000,622.280000,441.839000,623.880000C444.527000,625.416000,447.503000,626.184000,450.767000,626.184000C454.031000,626.184000,457.007000,625.416000,459.695000,623.880000C462.447000,622.280000,464.623000,620.008000,466.223000,617.064000C467.823000,614.056000,468.623000,610.568000,468.623000,606.600000Z" fill="rgb(255,255,255)" stroke="none" stroke-width="1"/><g id="et9p08muimof4_to" transform="translate(408.762677,449.135903)"><g id="et9p08muimof4" transform="scale(0.800000,0.800000) translate(-455.545311,-497.420131)"><path id="et9p08muimof5" d="M468.713000,457.508000C468.570000,452.084000,464.129000,447.774000,458.720000,447.774000C458.676000,447.774000,458.632000,447.774000,458.589000,447.775000C456.109000,447.807000,453.623000,447.853000,451.140000,447.903000C451.144000,447.366000,451.149000,446.822000,451.159000,446.255000C451.594000,421.662000,441.591000,401.437000,421.429000,386.141000C404.730000,373.472000,383.195000,365.569000,364.195000,358.596000C347.577000,352.497000,331.810000,346.711000,323.489000,339.317000L297.847000,191.095000L444.972000,16.443000C447.478000,13.468000,448.032000,9.310000,446.391000,5.783000C444.751000,2.255000,441.213000,0,437.324000,0L251.074000,0C247.900000,0,244.915000,1.506000,243.030000,4.060000L209.579000,49.358000C209.571000,49.369000,209.562000,49.381000,209.554000,49.392000L160.234000,116.179000C158.219000,111.481000,156.570000,106.755000,155.326000,102.063000C154.387000,98.520000,151.585000,95.774000,148.023000,94.908000C144.459000,94.042000,140.710000,95.194000,138.250000,97.910000L33.254000,213.771000L3.186000,243.405000C1.278000,245.285000,0.204994,247.853000,0.205994,250.532000C0.207994,253.211000,1.284000,255.778000,3.194000,257.656000L147.256000,399.336000L198.636000,449.866000L216.310000,467.248000C216.555000,467.489000,216.812000,467.717000,217.081000,467.931000C265.975000,506.988000,326.259000,511.997000,373.316000,511.998000L373.325000,511.998000C396.597000,511.998000,419.892000,510.583000,442.418000,509.214000C448.448000,508.848000,454.431000,508.485000,460.353000,508.152000C465.752000,507.849000,469.932000,503.308000,469.789000,497.902000L468.713000,457.508000ZM256.121000,20L415.825000,20L337.551000,112.918000C318.650000,101.692000,296.517000,89.095000,275.025000,76.863000C259.599000,68.083000,244.858000,59.693000,232.241000,52.338000L256.121000,20ZM220.290000,68.520000C233.407000,76.189000,248.892000,85.002000,265.132000,94.245000C285.471000,105.821000,306.378000,117.722000,324.488000,128.426000L282.505000,178.263000C281.077000,178.280000,279.641000,178.293000,278.221000,178.311000C245.948000,178.724000,218.073000,179.081000,196.239000,162.876000C186.908000,155.951000,178.057000,146.369000,170.803000,135.534000L220.290000,68.520000ZM141.747000,123.834000C142.764000,126.216000,143.859000,128.588000,145.032000,130.944000C146.380000,133.649000,147.836000,136.319000,149.370000,138.950000C149.738000,139.861000,150.243000,140.720000,150.881000,141.502000C159.938000,156.323000,171.736000,169.600000,184.319000,178.937000C211.575000,199.167000,244.074000,198.751000,278.477000,198.310000C278.583000,198.309000,278.691000,198.308000,278.797000,198.306000L286.755000,244.309000L241.034000,244.309000C235.512000,244.309000,231.034000,248.786000,231.034000,254.309000C231.034000,259.832000,235.511000,264.309000,241.034000,264.309000L290.216000,264.309000L294.175000,287.195000L256.595000,287.195000C251.073000,287.195000,246.595000,291.672000,246.595000,297.195000C246.595000,302.718000,251.073000,307.195000,256.595000,307.195000L297.635000,307.195000L304.327000,345.879000C304.653000,347.764000,305.513000,349.515000,306.804000,350.926000C317.708000,362.840000,336.942000,369.898000,357.304000,377.371000C393.973000,390.828000,431.890000,404.744000,431.163000,445.901000C431.147000,446.794000,431.141000,447.632000,431.138000,448.441000C429.180000,448.502000,427.220000,448.564000,425.283000,448.626000C411.636000,449.062000,397.523000,449.515000,383.950000,449.515000C325.079000,449.515000,277.549000,441.020000,236.936000,399.563000C236.890000,399.516000,236.844000,399.470000,236.798000,399.425000L54.337000,220.290000L141.747000,123.834000ZM441.204000,489.253000C418.974000,490.603000,395.990000,492,373.323000,492L373.315000,492C329.651000,491.999000,273.939000,487.515000,229.959000,452.623000L24.459000,250.520000L40.489000,234.722000L222.718000,413.630000C270.878000,462.742000,328.669000,469.515000,383.948000,469.515000C397.842000,469.515000,412.116000,469.058000,425.921000,468.616000C433.491000,468.374000,441.242000,468.126000,448.984000,467.951000L449.537000,488.750000C446.770000,488.915000,443.992000,489.083000,441.204000,489.253000Z" fill="rgb(255,255,255)" stroke="none" stroke-width="1"/></g></g><g id="et9p08muimof6_to" transform="translate(83.469976,417.371891)"><g id="et9p08muimof6" transform="scale(0.500000,0.500000) translate(-119.042503,-414.500000)"><g id="et9p08muimof7"><g id="et9p08muimof8"><path id="et9p08muimof9" d="M51.597000,379.337000L51.085000,379.337000C45.563000,379.337000,41.085000,383.814000,41.085000,389.337000C41.085000,394.860000,45.563000,399.337000,51.085000,399.337000L51.597000,399.337000C57.119000,399.337000,61.597000,394.860000,61.597000,389.337000C61.597000,383.814000,57.120000,379.337000,51.597000,379.337000Z" fill="rgb(255,255,255)" stroke="none" stroke-width="1"/></g><path id="et9p08muimof10" d="M67,389C67,383.477000,71.477200,379,77,379L146,379L146,399L77,399C71.477200,399,67,394.523000,67,389L67,389Z" fill="rgb(255,255,255)" stroke="none" stroke-width="1"/></g><g id="et9p08muimof11"><g id="et9p08muimof12"><path id="et9p08muimof13" d="M101.634000,429.867000L101.121000,429.867000C95.599000,429.867000,91.121000,434.344000,91.121000,439.867000C91.121000,445.390000,95.599000,449.867000,101.121000,449.867000L101.634000,449.867000C107.157000,449.867000,111.634000,445.390000,111.634000,439.867000C111.634000,434.344000,107.157000,429.867000,101.634000,429.867000Z" fill="rgb(255,255,255)" stroke="none" stroke-width="1"/></g><path id="et9p08muimof14" d="M118,440C118,434.477000,122.477000,430,128,430L197,430L197,450L128,450C122.477000,450,118,445.523000,118,440L118,440Z" fill="rgb(255,255,255)" stroke="none" stroke-width="1"/></g></g></g></g></svg>