<svg width="96" height="96" viewBox="0 0 96 96" fill="none" xmlns="http://www.w3.org/2000/svg">
<path d="M44.1802 12.481L46.2607 16.3886C46.7284 17.1097 47.2351 17.748 47.832 18.3424C49.5819 20.0705 51.213 21.9148 52.7141 23.8628C56.2392 28.4915 58.617 33.6318 60.315 39.1911C61.3333 42.5871 61.8863 46.0708 61.9277 49.5935C62.0982 60.1251 58.4878 69.1681 51.2085 76.6837C50.0245 77.8755 48.7453 78.9689 47.3838 79.953C46.6626 79.953 46.3216 79.4 46.0244 78.8909C45.4831 77.9467 45.1229 76.9098 44.9622 75.8335C44.7064 74.5594 44.5383 73.2852 44.6211 71.9697V71.3753C44.5627 71.2486 43.9268 12.7807 44.1802 12.481V12.481Z" fill="#599636"/>
<path d="M44.1802 12.3519C44.0949 12.1814 44.0097 12.3105 43.9244 12.3933C43.9658 13.246 43.6686 14.006 43.2033 14.732C42.6917 15.4531 42.0145 16.0061 41.3348 16.6006C37.5587 19.8699 34.5866 23.8189 32.2064 28.2357C29.0394 34.1799 27.4072 40.5505 26.9443 47.2573C26.7324 49.6764 27.7093 58.2127 28.4718 60.6757C30.5523 67.2144 34.2894 72.6933 39.13 77.4487C40.3189 78.5937 41.5906 79.6558 42.9061 80.6766C43.2886 80.6766 43.33 80.3355 43.4177 80.0822C43.5854 79.54 43.7132 78.9864 43.8002 78.4256L44.6528 72.0574L44.1802 12.3519Z" fill="#6CAC48"/>
<path d="M46.2607 82.5403C46.3459 81.5658 46.8137 80.757 47.3229 79.9506C46.8113 79.7387 46.4312 79.3172 46.134 78.847C45.8777 78.4019 45.6656 77.9327 45.5006 77.4463C44.9062 75.663 44.7795 73.792 44.609 71.9698V70.8662C44.397 71.0367 44.3532 72.4789 44.3532 72.6933C44.2292 74.6193 43.9736 76.5345 43.5882 78.4256C43.4615 79.1905 43.3763 79.9531 42.9061 80.6328C42.9061 80.718 42.9061 80.8033 42.9475 80.93C43.7124 83.181 43.922 85.4734 44.0511 87.8097V88.6624C44.0511 89.6807 44.0097 89.4663 44.855 89.8074C45.1961 89.934 45.5761 89.9779 45.9172 90.2312C46.173 90.2312 46.2144 90.0193 46.2144 89.8488L46.0877 88.448V84.5404C46.0463 83.8582 46.173 83.181 46.2582 82.5427L46.2607 82.5403Z" fill="#C2BFBF"/>
</svg>
