<svg width="96" height="96" viewBox="0 0 96 96" fill="none" xmlns="http://www.w3.org/2000/svg">
<path d="M67.5 69C56.67 69 45 66.66 45 61.5C45 56.34 56.67 54 67.5 54C78.33 54 90 56.34 90 61.5C90 66.66 78.33 69 67.5 69ZM67.5 57C54.63 57 48 60.15 48 61.5C48 62.85 54.63 66 67.5 66C80.37 66 87 62.85 87 61.5C87 60.15 80.37 57 67.5 57Z" fill="#F57C00"/>
<path d="M67.5 75C56.67 75 45 72.66 45 67.5C45 65.82 46.23 64.35 48.675 63.15C48.8523 63.0633 49.0449 63.0124 49.2419 63.0002C49.4388 62.988 49.6363 63.0147 49.8229 63.0787C50.0096 63.1428 50.1817 63.243 50.3297 63.3736C50.4776 63.5043 50.5983 63.6627 50.685 63.84C50.7717 64.0173 50.8226 64.2099 50.8348 64.4069C50.847 64.6038 50.8204 64.8013 50.7563 64.9879C50.6922 65.1746 50.592 65.3468 50.4614 65.4947C50.3308 65.6426 50.1723 65.7633 49.995 65.85C48.495 66.63 48 67.26 48 67.5C48 68.85 54.63 72 67.5 72C80.37 72 87 68.85 87 67.5C87 67.26 86.58 66.63 85.005 65.85C84.8277 65.7633 84.6692 65.6426 84.5386 65.4947C84.408 65.3468 84.3078 65.1746 84.2437 64.9879C84.1796 64.8013 84.153 64.6038 84.1652 64.4069C84.1774 64.2099 84.2283 64.0173 84.315 63.84C84.4017 63.6627 84.5224 63.5043 84.6703 63.3736C84.8183 63.243 84.9904 63.1428 85.1771 63.0787C85.3637 63.0147 85.5612 62.988 85.7581 63.0002C85.9551 63.0124 86.1477 63.0633 86.325 63.15C88.77 64.35 90 65.82 90 67.5C90 72.66 78.33 75 67.5 75Z" fill="#F57C00"/>
<path d="M67.5 81C56.67 81 45 78.66 45 73.5C45 71.82 46.23 70.35 48.675 69.15C49.033 68.975 49.446 68.9493 49.8229 69.0787C50.0096 69.1428 50.1817 69.243 50.3297 69.3736C50.4776 69.5043 50.5983 69.6627 50.685 69.84C50.7717 70.0173 50.8226 70.2099 50.8348 70.4069C50.847 70.6038 50.8204 70.8013 50.7563 70.9879C50.6922 71.1746 50.592 71.3468 50.4614 71.4947C50.3308 71.6426 50.1723 71.7633 49.995 71.85C48.495 72.63 48 73.26 48 73.5C48 74.85 54.63 78 67.5 78C80.37 78 87 74.85 87 73.5C87 73.26 86.58 72.63 85.005 71.85C84.8277 71.7633 84.6692 71.6426 84.5386 71.4947C84.408 71.3468 84.3078 71.1746 84.2437 70.9879C84.1796 70.8013 84.153 70.6038 84.1652 70.4069C84.1774 70.2099 84.2283 70.0173 84.315 69.84C84.4017 69.6627 84.5224 69.5043 84.6703 69.3736C84.8183 69.243 84.9904 69.1428 85.1771 69.0787C85.3637 69.0147 85.5612 68.988 85.7581 69.0002C85.9551 69.0124 86.1477 69.0633 86.325 69.15C88.77 70.35 90 71.82 90 73.5C90 78.66 78.33 81 67.5 81Z" fill="#F57C00"/>
<path d="M67.5 87C56.67 87 45 84.66 45 79.5C45 77.82 46.23 76.35 48.675 75.15C48.8523 75.0633 49.0449 75.0124 49.2419 75.0002C49.4388 74.988 49.6363 75.0147 49.8229 75.0787C50.0096 75.1428 50.1817 75.243 50.3297 75.3736C50.4776 75.5043 50.5983 75.6627 50.685 75.84C50.7717 76.0173 50.8226 76.2099 50.8348 76.4069C50.847 76.6038 50.8204 76.8013 50.7563 76.9879C50.6922 77.1746 50.592 77.3468 50.4614 77.4947C50.3308 77.6426 50.1723 77.7633 49.995 77.85C48.495 78.63 48 79.26 48 79.5C48 80.85 54.63 84 67.5 84C80.37 84 87 80.85 87 79.5C87 79.26 86.58 78.63 85.005 77.85C84.8277 77.7633 84.6692 77.6426 84.5386 77.4947C84.408 77.3468 84.3078 77.1746 84.2437 76.9879C84.1796 76.8013 84.153 76.6038 84.1652 76.4069C84.1774 76.2099 84.2283 76.0173 84.315 75.84C84.4017 75.6627 84.5224 75.5043 84.6703 75.3736C84.8183 75.243 84.9904 75.1428 85.1771 75.0787C85.3637 75.0147 85.5612 74.988 85.7581 75.0002C85.9551 75.0124 86.1477 75.0633 86.325 75.15C88.77 76.35 90 77.82 90 79.5C90 84.66 78.33 87 67.5 87Z" fill="#F57C00"/>
<path d="M75 63H60C59.6022 63 59.2206 62.842 58.9393 62.5607C58.658 62.2794 58.5 61.8978 58.5 61.5C58.5 61.1022 58.658 60.7206 58.9393 60.4393C59.2206 60.158 59.6022 60 60 60H75C75.3978 60 75.7794 60.158 76.0607 60.4393C76.342 60.7206 76.5 61.1022 76.5 61.5C76.5 61.8978 76.342 62.2794 76.0607 62.5607C75.7794 62.842 75.3978 63 75 63Z" fill="#F57C00"/>
<path d="M32.505 82.65C31.5874 82.6487 30.6777 82.481 29.82 82.155C27.9675 81.4417 26.4733 80.0231 25.665 78.21L6.69 35.76C6.29001 34.8598 6.07127 33.8896 6.04627 32.9049C6.02127 31.9202 6.19051 30.9401 6.54431 30.0208C6.89811 29.1015 7.42955 28.2608 8.10828 27.5469C8.787 26.833 9.59971 26.2598 10.5 25.86L42 11.76C42.3571 11.6249 42.7523 11.6311 43.105 11.7773C43.4578 11.9235 43.7415 12.1987 43.8983 12.5468C44.0551 12.8949 44.0733 13.2898 43.9492 13.6508C43.825 14.0119 43.5678 14.312 43.23 14.49L11.73 28.59C11.1897 28.8312 10.7022 29.1766 10.2955 29.6065C9.88885 30.0363 9.57094 30.5422 9.36 31.095C8.93317 32.194 8.95472 33.4167 9.42 34.5L28.395 76.95C28.6352 77.4971 28.9818 77.9909 29.4149 78.4026C29.8479 78.8143 30.3585 79.1356 30.917 79.3478C31.4755 79.5601 32.0707 79.659 32.6679 79.6387C33.265 79.6185 33.8521 79.4796 34.395 79.23L40.08 76.68C40.454 76.5249 40.8742 76.5246 41.2484 76.6793C41.6225 76.8341 41.9199 77.1311 42.075 77.505C42.2302 77.879 42.2304 78.2992 42.0757 78.6734C41.921 79.0475 41.624 79.3449 41.25 79.5L35.565 82.05C34.5983 82.4622 33.5558 82.6666 32.505 82.65V82.65Z" fill="#999999"/>
<path d="M27 51.615C26.0553 51.6162 25.1277 51.3625 24.3152 50.8806C23.5026 50.3987 22.8351 49.7065 22.3831 48.8769C21.9311 48.0473 21.7113 47.1112 21.7469 46.1671C21.7825 45.2231 22.0722 44.3061 22.5855 43.513C23.0987 42.7198 23.8164 42.0798 24.663 41.6605C25.5095 41.2412 26.4536 41.0581 27.3955 41.1305C28.3375 41.2029 29.2424 41.5281 30.015 42.0718C30.7875 42.6156 31.399 43.3577 31.785 44.22C31.7935 44.2747 31.7935 44.3303 31.785 44.385C31.8427 44.5438 31.8731 44.7111 31.875 44.88C31.8746 45.2326 31.75 45.5738 31.523 45.8437C31.2961 46.1136 30.9813 46.2949 30.6339 46.3557C30.2866 46.4166 29.929 46.3532 29.6237 46.1766C29.3185 46 29.0853 45.7215 28.965 45.39C28.7741 44.9962 28.4724 44.6665 28.0969 44.4416C27.7214 44.2166 27.2885 44.106 26.8511 44.1233C26.4138 44.1407 25.991 44.2853 25.6345 44.5393C25.2781 44.7933 25.0035 45.1458 24.8443 45.5536C24.6852 45.9614 24.6485 46.4067 24.7386 46.835C24.8288 47.2633 25.0419 47.6561 25.3519 47.9651C25.6619 48.2741 26.0553 48.486 26.4839 48.5748C26.9125 48.6636 27.3578 48.6254 27.765 48.465C27.9441 48.3632 28.1422 48.2993 28.347 48.2774C28.5519 48.2554 28.759 48.2759 28.9556 48.3376C29.1522 48.3993 29.3339 48.5007 29.4895 48.6357C29.6452 48.7707 29.7713 48.9363 29.8601 49.1222C29.9489 49.3081 29.9985 49.5103 30.0057 49.7161C30.013 49.922 29.9777 50.1272 29.9022 50.3188C29.8267 50.5105 29.7124 50.6845 29.5667 50.8301C29.4209 50.9757 29.2468 51.0897 29.055 51.165V51.165C28.4089 51.4566 27.7089 51.6099 27 51.615Z" fill="#666666"/>
<path d="M34.26 36.465C33.9715 36.4644 33.6892 36.3806 33.4471 36.2236C33.205 36.0667 33.0133 35.8432 32.895 35.58L29.82 28.695C29.7437 28.5121 29.7044 28.3158 29.7044 28.1175C29.7044 27.9193 29.7437 27.723 29.82 27.54C29.8857 27.356 29.989 27.1876 30.1233 27.0455C30.2576 26.9035 30.4199 26.791 30.6 26.715L37.485 23.715C37.8421 23.5799 38.2373 23.5861 38.59 23.7323C38.9428 23.8785 39.2265 24.1537 39.3833 24.5018C39.5401 24.85 39.5583 25.2448 39.4342 25.6058C39.31 25.9669 39.0528 26.267 38.715 26.445L33.195 28.905L35.655 34.41C35.8173 34.7721 35.8295 35.1838 35.689 35.5549C35.5484 35.926 35.2665 36.2263 34.905 36.39C34.6981 36.4618 34.4779 36.4874 34.26 36.465Z" fill="#666666"/>
<path d="M30.465 46.335C30.1524 46.3369 29.847 46.241 29.5915 46.0609C29.336 45.8807 29.1432 45.6252 29.04 45.33C28.9745 45.141 28.9474 44.9409 28.9604 44.7413C28.9734 44.5417 29.0261 44.3467 29.1156 44.1678C29.205 43.9889 29.3294 43.8297 29.4812 43.6996C29.6331 43.5694 29.8095 43.471 30 43.41C30.1879 43.3415 30.3877 43.3113 30.5875 43.3212C30.7873 43.331 30.9831 43.3807 31.1634 43.4674C31.3437 43.554 31.5049 43.6759 31.6374 43.8257C31.7699 43.9756 31.8711 44.1505 31.935 44.34C32.0655 44.7121 32.0442 45.1206 31.8758 45.4771C31.7073 45.8337 31.4053 46.1095 31.035 46.245V46.245C30.8507 46.304 30.6585 46.3344 30.465 46.335V46.335Z" fill="#999999"/>
<path d="M40.5 68.085C40.3148 68.0866 40.1311 68.0509 39.96 67.98L29.535 63.99C27.6805 63.2782 26.1841 61.8597 25.3742 60.0459C24.5643 58.2321 24.507 56.171 25.215 54.315L29.01 44.37C29.0258 44.3113 29.0511 44.2555 29.085 44.205L41.865 10.875C42.2174 9.95495 42.7476 9.11332 43.4254 8.39823C44.1031 7.68314 44.9151 7.10859 45.815 6.70741C46.7148 6.30623 47.6849 6.08629 48.6698 6.06014C49.6547 6.03399 50.6351 6.20215 51.555 6.55501L85.185 19.41C87.0386 20.119 88.5357 21.5338 89.3482 23.3444C90.1608 25.1551 90.2225 27.2139 89.52 29.07L81.105 51C81.045 51.1974 80.9449 51.3804 80.811 51.5374C80.677 51.6943 80.5121 51.822 80.3266 51.9123C80.1411 52.0027 79.9389 52.0538 79.7327 52.0624C79.5265 52.0711 79.3208 52.0371 79.1284 51.9626C78.9359 51.8881 78.7609 51.7747 78.6143 51.6295C78.4677 51.4843 78.3526 51.3104 78.2763 51.1187C78.1999 50.927 78.164 50.7216 78.1706 50.5153C78.1773 50.3091 78.2265 50.1064 78.315 49.92L86.715 27.945C86.9249 27.3925 87.0238 26.804 87.0062 26.2132C86.9887 25.6225 86.8549 25.0409 86.6125 24.5019C86.3701 23.9628 86.0239 23.4768 85.5937 23.0715C85.1635 22.6663 84.6576 22.3497 84.105 22.14L50.475 9.34501C49.9188 9.134 49.3263 9.03535 48.7317 9.05479C48.1371 9.07423 47.5523 9.21137 47.0111 9.45827C46.4699 9.70518 45.983 10.0569 45.5785 10.4932C45.1741 10.9295 44.8602 11.4416 44.655 12L31.905 45.405V45.525L28.11 55.44C27.9001 55.9925 27.8012 56.581 27.8188 57.1718C27.8364 57.7626 27.9702 58.3441 28.2125 58.8832C28.4549 59.4222 28.8011 59.9083 29.2313 60.3135C29.6616 60.7188 30.1674 61.0353 30.72 61.245L41.22 65.235C41.5316 65.385 41.7818 65.638 41.9283 65.9513C42.0748 66.2645 42.1085 66.6187 42.0238 66.954C41.9391 67.2893 41.7412 67.585 41.4635 67.7911C41.1858 67.9972 40.8454 68.101 40.5 68.085Z" fill="#999999"/>
<path d="M46.5 42.255C45.858 42.253 45.2221 42.1309 44.625 41.895C43.6554 41.5218 42.8182 40.8693 42.2196 40.0201C41.621 39.1709 41.2879 38.1631 41.2623 37.1245C41.2368 36.0858 41.52 35.0629 42.0761 34.1853C42.6322 33.3076 43.4363 32.6148 44.3864 32.1944C45.3365 31.7739 46.39 31.6449 47.4136 31.8236C48.4371 32.0022 49.3845 32.4806 50.136 33.198C50.8875 33.9155 51.4093 34.8398 51.6352 35.8539C51.861 36.8681 51.781 37.9264 51.405 38.895V38.895C51.1627 39.5417 50.7938 40.1334 50.3198 40.6357C49.8459 41.138 49.2765 41.5406 48.645 41.82C47.9676 42.1111 47.2373 42.2592 46.5 42.255V42.255ZM46.5 34.755C45.9685 34.7484 45.4518 34.9303 45.0415 35.2683C44.6312 35.6063 44.3538 36.0787 44.2586 36.6017C44.1633 37.1247 44.2563 37.6645 44.5211 38.1254C44.7859 38.5864 45.2053 38.9388 45.705 39.12C46.2623 39.3255 46.878 39.3039 47.4195 39.0598C47.961 38.8157 48.3849 38.3687 48.6 37.815V37.815C48.7151 37.542 48.7744 37.2488 48.7744 36.9525C48.7744 36.6563 48.7151 36.363 48.6 36.09C48.3542 35.5486 47.9078 35.1238 47.355 34.905C47.0815 34.8017 46.7923 34.7459 46.5 34.74V34.755Z" fill="#666666"/>
<path d="M73.5 35.79C72.9514 35.7864 72.4079 35.6848 71.895 35.49C71.3421 35.2791 70.8363 34.9612 70.4065 34.5545C69.9766 34.1478 69.6312 33.6604 69.39 33.12C69.14 32.5781 69.0003 31.9918 68.979 31.3953C68.9578 30.7989 69.0554 30.2041 69.2662 29.6458C69.4769 29.0874 69.7967 28.5765 70.2068 28.1429C70.6169 27.7093 71.1092 27.3616 71.655 27.12C72.197 26.87 72.7832 26.7303 73.3797 26.7091C73.9762 26.6878 74.5709 26.7854 75.1293 26.9962C75.6876 27.207 76.1985 27.5267 76.6321 27.9369C77.0657 28.347 77.4135 28.8393 77.655 29.385C77.8963 29.9259 78.0284 30.509 78.0439 31.1011C78.0593 31.6931 77.9578 32.2823 77.745 32.835V32.835C77.4272 33.7044 76.8491 34.4545 76.0895 34.9833C75.3298 35.5122 74.4256 35.7938 73.5 35.79ZM73.5 29.79C73.1961 29.7921 72.8999 29.8864 72.6508 30.0605C72.4017 30.2346 72.2114 30.4803 72.105 30.765C71.955 31.1302 71.955 31.5398 72.105 31.905C72.264 32.2688 72.5606 32.5546 72.93 32.7C73.113 32.7764 73.3092 32.8157 73.5075 32.8157C73.7057 32.8157 73.902 32.7764 74.085 32.7C74.4459 32.5343 74.7265 32.2323 74.865 31.86V31.86C75.015 31.4948 75.015 31.0852 74.865 30.72C74.706 30.3563 74.4094 30.0704 74.04 29.925C73.8694 29.8459 73.687 29.7953 73.5 29.775V29.79Z" fill="#666666"/>
<path d="M68.145 49.8C67.5964 49.7964 67.0529 49.6948 66.54 49.5C65.4267 49.0735 64.5282 48.2227 64.0417 47.1343C63.5551 46.0459 63.5204 44.809 63.945 43.695C64.1559 43.1421 64.4738 42.6363 64.8805 42.2065C65.2872 41.7766 65.7747 41.4312 66.315 41.19C67.1259 40.8387 68.0222 40.734 68.8923 40.8889C69.7623 41.0437 70.5674 41.4513 71.2073 42.0608C71.8472 42.6703 72.2935 43.4547 72.4904 44.3161C72.6874 45.1776 72.6264 46.078 72.315 46.905V46.905C71.992 47.7511 71.4212 48.4801 70.6772 48.9966C69.9332 49.5131 69.0507 49.7931 68.145 49.8V49.8ZM68.145 43.8C67.9344 43.8021 67.726 43.8428 67.53 43.92C67.169 44.0857 66.8885 44.3878 66.75 44.76C66.6079 45.1301 66.6181 45.5413 66.7783 45.9039C66.9385 46.2665 67.2357 46.5509 67.605 46.695C67.7892 46.765 67.9853 46.7979 68.1823 46.7921C68.3792 46.7862 68.573 46.7416 68.7527 46.6608C68.9324 46.58 69.0944 46.4646 69.2295 46.3212C69.3646 46.1778 69.4701 46.0092 69.54 45.825V45.825C69.69 45.4598 69.69 45.0502 69.54 44.685C69.381 44.3213 69.0844 44.0354 68.715 43.89C68.5315 43.8276 68.3387 43.7972 68.145 43.8V43.8Z" fill="#666666"/>
<path d="M65.34 45.72C65.161 45.7216 64.9832 45.6911 64.815 45.63L56.4 42.42C56.2143 42.3497 56.0445 42.2432 55.9003 42.1067C55.7561 41.9702 55.6404 41.8065 55.56 41.625C55.4061 41.2693 55.3848 40.8701 55.5 40.5L60.855 26.49C60.9991 26.1207 61.2835 25.8235 61.6461 25.6633C62.0087 25.5031 62.4199 25.4929 62.79 25.635L71.205 28.845C71.3892 28.9149 71.5578 29.0204 71.7012 29.1555C71.8446 29.2906 71.96 29.4526 72.0408 29.6323C72.1216 29.812 72.1662 30.0058 72.1721 30.2027C72.1779 30.3997 72.145 30.5958 72.075 30.78C72.0052 30.966 71.8991 31.1362 71.763 31.2809C71.6268 31.4255 71.4633 31.5417 71.2819 31.6226C71.1005 31.7036 70.9048 31.7477 70.7062 31.7524C70.5076 31.7571 70.31 31.7223 70.125 31.65L63.15 28.935L58.875 40.14L65.88 42.825C66.0642 42.8949 66.2328 43.0004 66.3762 43.1355C66.5196 43.2706 66.635 43.4326 66.7158 43.6123C66.7966 43.792 66.8412 43.9858 66.8471 44.1827C66.8529 44.3797 66.82 44.5758 66.75 44.76C66.6403 45.0443 66.4466 45.2884 66.1947 45.4599C65.9429 45.6314 65.6447 45.7221 65.34 45.72Z" fill="#666666"/>
<path d="M57 42.51C56.8163 42.5095 56.6339 42.4791 56.46 42.42L49.455 39.735C49.083 39.5938 48.7824 39.3106 48.6192 38.9477C48.4561 38.5848 48.4438 38.172 48.585 37.8C48.7262 37.428 49.0094 37.1274 49.3723 36.9642C49.7352 36.8011 50.148 36.7888 50.52 36.93L57.525 39.615C57.8477 39.7424 58.1163 39.9777 58.285 40.281C58.4537 40.5842 58.5121 40.9365 58.4501 41.2779C58.3882 41.6193 58.2099 41.9287 57.9455 42.1533C57.681 42.378 57.3469 42.504 57 42.51Z" fill="#666666"/>
</svg>
