<svg width="96" height="96" viewBox="0 0 96 96" fill="none" xmlns="http://www.w3.org/2000/svg">
<path fill-rule="evenodd" clip-rule="evenodd" d="M47.1083 0C34.5452 0 26.6954 10.4733 23.5532 31.4199C28.2646 20.9466 33.7606 17.0199 40.0412 19.6366C43.6246 21.1293 46.1871 25.4648 49.0209 30.2648C53.64 38.081 58.9865 47.1267 70.6615 47.1267C83.2228 47.1267 91.0745 36.6534 94.2148 15.7099C89.5052 26.1832 84.0092 30.1099 77.7286 27.4901C74.1434 25.9974 71.5809 21.6619 68.7471 16.865C64.128 9.04258 58.7834 0 47.1083 0ZM23.5532 47.1267C10.992 47.1267 3.14031 57.6 0 78.5466C4.71139 68.0733 10.2074 64.1466 16.4862 66.7634C20.0714 68.256 22.6338 72.5915 25.4677 77.3915C30.0868 85.2077 35.4314 94.2534 47.1083 94.2534C59.6695 94.2534 67.5212 83.7832 70.6615 62.8366C65.9502 73.3099 60.4542 77.2366 54.1735 74.6199C50.5902 73.1241 48.0277 68.7886 45.1938 63.9917C40.5748 56.1755 35.2283 47.1267 23.5532 47.1267V47.1267Z" fill="#06B6D4"/>
</svg>
