<svg width="96" height="96" viewBox="0 0 96 96" fill="none" xmlns="http://www.w3.org/2000/svg">
<path d="M48 96C74.5097 96 96 74.5097 96 48C96 21.4903 74.5097 0 48 0C21.4903 0 0 21.4903 0 48C0 74.5097 21.4903 96 48 96Z" fill="white"/>
<path d="M46.9894 50.97L19.4625 38.5106L47.7131 26.0512L74.9475 38.22L46.9894 50.97Z" fill="#0D73F1"/>
<path d="M74.3925 37.7869H72.6544V56.0419H74.3925V37.7869Z" fill="#0D73F1"/>
<path d="M76.275 56.6925C76.2765 56.1477 76.1163 55.6147 75.8146 55.1611C75.513 54.7074 75.0835 54.3534 74.5806 54.144C74.0777 53.9346 73.5239 53.8791 72.9894 53.9846C72.455 54.0901 71.9638 54.3519 71.5782 54.7367C71.1926 55.1215 70.9298 55.6121 70.8232 56.1464C70.7166 56.6807 70.7709 57.2345 70.9793 57.7379C71.1877 58.2413 71.5408 58.6715 71.9939 58.974C72.4469 59.2766 72.9796 59.4379 73.5244 59.4375C74.2528 59.437 74.9513 59.1478 75.4668 58.6333C75.9824 58.1188 76.273 57.4209 76.275 56.6925V56.6925Z" fill="#0D73F1"/>
<path d="M72.2756 57.5625C72.2756 57.5625 70.095 62.1262 70.9631 69.0806H74.0925V56.9119C74.0925 56.9119 72.2756 57.9244 72.2756 57.5625Z" fill="#0D73F1"/>
<path d="M75.0319 57.5625C75.0319 57.5625 77.2013 62.1262 76.3313 69.0806H73.2244V56.9119C73.2244 56.9119 75.0338 57.9244 75.0319 57.5625Z" fill="#0D73F1"/>
<path d="M62.6344 45.9375C62.6344 46.0687 49.155 52.3125 46.5544 53.5237C43.9519 52.3125 30.4725 46.0669 30.4725 45.9375V64.4437C34.8169 69.06 43.38 69.8062 46.1194 69.9244V69.9487C46.1194 69.9487 46.2769 69.9487 46.5544 69.9487C46.8319 69.9487 46.9894 69.9487 46.9894 69.9487V69.9244C49.7288 69.8044 58.29 69.06 62.6363 64.4437L62.6344 45.9375Z" fill="#0D73F1"/>
</svg>
