<svg width="96" height="96" viewBox="0 0 96 96" fill="none" xmlns="http://www.w3.org/2000/svg">
<g clip-path="url(#clip0)">
<path d="M68.8696 83.4785H27.1307C21.3742 83.4785 16.6954 88.1574 16.6954 93.9131C16.6954 95.0648 17.6309 96.0003 18.7826 96.0003H77.2176C78.3694 96.0003 79.3041 95.0648 79.3041 93.9131C79.3041 88.1574 74.6253 83.4785 68.8696 83.4785V83.4785Z" fill="white"/>
<path d="M85.565 0H10.4345C4.67884 0 0 4.67884 0 10.4345V68.8696C0 74.6253 4.67884 79.3041 10.4345 79.3041H85.565C91.3214 79.3041 96.0003 74.6253 96.0003 68.8696V10.4345C96.0003 4.67884 91.3214 0 85.565 0V0Z" fill="white"/>
<path d="M10.4345 4.17365H85.565C89.0172 4.17365 91.8258 6.98309 91.8258 10.4345V62.6087H4.17366V10.4345C4.17366 6.98309 6.9831 4.17365 10.4345 4.17365V4.17365Z" fill="white"/>
<path d="M43.8261 76.3494H52.4325V84.9558H43.8261V76.3494Z" fill="white"/>
<path d="M85.565 79.3041H10.4345C4.68343 79.3041 0 74.6214 0 68.8696V10.4345C0 4.68342 4.68343 0 10.4345 0H85.565C91.3169 0 96.0003 4.68342 96.0003 10.4345V68.8696C96.0003 74.6214 91.3169 79.3041 85.565 79.3041V79.3041ZM10.4345 4.17366C6.9831 4.17366 4.17366 6.9831 4.17366 10.4345V68.8696C4.17366 72.3218 6.9831 75.1304 10.4345 75.1304H85.565C89.0172 75.1304 91.8259 72.3218 91.8259 68.8696V10.4345C91.8259 6.9831 89.0172 4.17366 85.565 4.17366H10.4345Z" fill="black"/>
<path d="M77.2176 96.0003H18.7826C17.6309 96.0003 16.6954 95.0648 16.6954 93.9131C16.6954 88.1612 21.3788 83.4785 27.1307 83.4785H68.8696C74.6214 83.4785 79.3041 88.1612 79.3041 93.9131C79.3041 95.0648 78.3694 96.0003 77.2176 96.0003V96.0003ZM21.2244 91.8259H74.7712C73.9076 89.397 71.5865 87.6522 68.8657 87.6522H27.1307C24.4091 87.6522 22.0881 89.397 21.2244 91.8259Z" fill="black"/>
<path d="M93.9131 66.7824H2.08721C0.934698 66.7824 0 65.8477 0 64.6959C0 63.5434 0.934698 62.6087 2.08721 62.6087H93.9131C95.0648 62.6087 96.0003 63.5434 96.0003 64.6959C96.0003 65.8477 95.0648 66.7824 93.9131 66.7824Z" fill="black"/>
<path d="M43.8261 87.6522C42.6743 87.6522 41.7389 86.7175 41.7389 85.565V77.2176C41.7389 76.0651 42.6743 75.1304 43.8261 75.1304C44.9778 75.1304 45.9133 76.0651 45.9133 77.2176V85.565C45.9133 86.7175 44.9778 87.6522 43.8261 87.6522Z" fill="black"/>
<path d="M52.1742 87.6522C51.0217 87.6522 50.087 86.7175 50.087 85.565V77.2176C50.087 76.0651 51.0217 75.1304 52.1742 75.1304C53.3259 75.1304 54.2606 76.0651 54.2606 77.2176V85.565C54.2606 86.7175 53.3259 87.6522 52.1742 87.6522V87.6522Z" fill="black"/>
<path d="M52.1742 29.2171C51.0217 29.2171 50.087 28.2824 50.087 27.1307V19.6462L49.4778 20.2561C48.6639 21.0701 47.3402 21.0701 46.5262 20.2561C45.7131 19.4422 45.7131 18.1192 46.5262 17.3053L50.7007 13.1309C51.2976 12.5301 52.1948 12.3505 52.9751 12.6807C53.7516 13.0017 54.2606 13.7652 54.2606 14.609V27.1307C54.2606 28.2824 53.3259 29.2171 52.1742 29.2171V29.2171Z" fill="black"/>
<path d="M64.6959 29.2171C63.5434 29.2171 62.6087 28.2824 62.6087 27.1307V19.6462L61.9996 20.2561C61.1856 21.0701 59.8619 21.0701 59.048 20.2561C58.2348 19.4422 58.2348 18.1192 59.048 17.3053L63.2224 13.1309C63.8193 12.5301 64.7127 12.3505 65.4969 12.6807C66.2734 13.0017 66.7824 13.7652 66.7824 14.609V27.1307C66.7824 28.2824 65.8477 29.2171 64.6959 29.2171Z" fill="black"/>
<path d="M39.6524 29.2171H31.3043C30.1526 29.2171 29.2171 28.2824 29.2171 27.1307V14.6089C29.2171 13.4564 30.1526 12.5217 31.3043 12.5217H39.6524C40.8042 12.5217 41.7389 13.4564 41.7389 14.6089V27.1307C41.7389 28.2824 40.8042 29.2171 39.6524 29.2171ZM33.3916 25.0435H37.5652V16.6954H33.3916V25.0435Z" fill="black"/>
<path d="M22.9563 29.2171H14.609C13.4564 29.2171 12.5217 28.2824 12.5217 27.1307V14.6089C12.5217 13.4564 13.4564 12.5217 14.609 12.5217H22.9563C24.1088 12.5217 25.0435 13.4564 25.0435 14.6089V27.1307C25.0435 28.2824 24.1088 29.2171 22.9563 29.2171ZM16.6954 25.0435H20.8698V16.6954H16.6954V25.0435Z" fill="black"/>
<path d="M81.3913 29.2171H73.0432C71.8915 29.2171 70.9568 28.2824 70.9568 27.1307V14.6089C70.9568 13.4564 71.8915 12.5217 73.0432 12.5217H81.3913C82.5431 12.5217 83.4785 13.4564 83.4785 14.6089V27.1307C83.4785 28.2824 82.5431 29.2171 81.3913 29.2171ZM75.1304 25.0435H79.3041V16.6954H75.1304V25.0435Z" fill="black"/>
<path d="M35.478 54.2606C34.3263 54.2606 33.3916 53.3259 33.3916 52.1742V44.6897L32.7817 45.2996C31.9677 46.1135 30.6448 46.1135 29.8308 45.2996C29.0169 44.4856 29.0169 43.1627 29.8308 42.3488L34.0045 38.1743C34.6014 37.5774 35.4994 37.3986 36.2751 37.7242C37.0562 38.0452 37.5652 38.8087 37.5652 39.6524V52.1742C37.5652 53.3259 36.6305 54.2606 35.478 54.2606Z" fill="black"/>
<path d="M64.6959 54.2606C63.5434 54.2606 62.6087 53.3259 62.6087 52.1742V44.6897L61.9996 45.2996C61.1856 46.1135 59.8619 46.1135 59.048 45.2996C58.2348 44.4856 58.2348 43.1627 59.048 42.3487L63.2224 38.1743C63.8193 37.5736 64.7127 37.3986 65.4969 37.7242C66.2734 38.0452 66.7824 38.8087 66.7824 39.6524V52.1742C66.7824 53.3259 65.8477 54.2606 64.6959 54.2606Z" fill="black"/>
<path d="M52.1742 54.2606H43.8261C42.6743 54.2606 41.7389 53.3259 41.7389 52.1742V39.6524C41.7389 38.4999 42.6743 37.5652 43.8261 37.5652H52.1742C53.3259 37.5652 54.2606 38.4999 54.2606 39.6524V52.1742C54.2606 53.3259 53.3259 54.2606 52.1742 54.2606ZM45.9133 50.087H50.087V41.7389H45.9133V50.087Z" fill="black"/>
<path d="M22.9563 54.2606H14.609C13.4564 54.2606 12.5217 53.3259 12.5217 52.1742V39.6524C12.5217 38.4999 13.4564 37.5652 14.609 37.5652H22.9563C24.1088 37.5652 25.0435 38.4999 25.0435 39.6524V52.1742C25.0435 53.3259 24.1088 54.2606 22.9563 54.2606ZM16.6954 50.087H20.8698V41.7389H16.6954V50.087Z" fill="black"/>
<path d="M81.3913 54.2606H73.0432C71.8915 54.2606 70.9568 53.3259 70.9568 52.1742V39.6524C70.9568 38.4999 71.8915 37.5652 73.0432 37.5652H81.3913C82.5431 37.5652 83.4785 38.4999 83.4785 39.6524V52.1742C83.4785 53.3259 82.5431 54.2606 81.3913 54.2606ZM75.1304 50.087H79.3041V41.7389H75.1304V50.087Z" fill="black"/>
</g>
<defs>
<clipPath id="clip0">
<rect width="96" height="96" fill="white"/>
</clipPath>
</defs>
</svg>
