<svg width="96" height="96" viewBox="0 0 96 96" fill="none" xmlns="http://www.w3.org/2000/svg">
<rect width="96" height="96" fill="white"/>
<path d="M47.994 0.999191C21.492 0.999191 0 22.5752 0 49.1912C0 70.4792 13.752 88.5392 32.832 94.9172C35.232 95.3612 36.108 93.8732 36.108 92.5952C36.108 91.4492 36.066 88.4192 36.042 84.3992C22.692 87.3092 19.872 77.9372 19.872 77.9372C17.694 72.3692 14.544 70.8872 14.544 70.8872C10.182 67.8992 14.868 67.9592 14.868 67.9592C19.686 68.3012 22.218 72.9272 22.218 72.9272C26.502 80.2892 33.456 78.1652 36.192 76.9292C36.624 73.8152 37.866 71.6912 39.24 70.4852C28.584 69.2672 17.376 65.1332 17.376 46.6712C17.376 41.4092 19.248 37.1072 22.32 33.7352C21.822 32.5172 20.178 27.6152 22.788 20.9852C22.788 20.9852 26.82 19.6892 35.988 25.9232C39.816 24.8552 43.92 24.3212 48.006 24.3032C52.08 24.3272 56.19 24.8552 60.024 25.9292C69.186 19.6952 73.212 20.9912 73.212 20.9912C75.828 27.6272 74.184 32.5232 73.692 33.7412C76.77 37.1132 78.624 41.4152 78.624 46.6772C78.624 65.1872 67.404 69.2612 56.712 70.4552C58.434 71.9432 59.97 74.8832 59.97 79.3772C59.97 85.8212 59.91 91.0172 59.91 92.5952C59.91 93.8852 60.774 95.3852 63.21 94.9112C82.26 88.5272 96 70.4732 96 49.1912C96 22.5752 74.508 0.999191 47.994 0.999191Z" fill="#FDFDFD"/>
</svg>
