<svg width="96" height="96" viewBox="0 0 96 96" fill="none" xmlns="http://www.w3.org/2000/svg">
<path d="M87.316 0H8.68398C3.888 0 0 3.888 0 8.68398V87.3158C0 92.112 3.888 96 8.68398 96H87.3158C92.112 96 96 92.112 96 87.3158V8.68398C96 3.888 92.112 0 87.316 0ZM29.7065 82.8927C29.7065 84.2885 28.5751 85.4199 27.1793 85.4199H16.4218C15.026 85.4199 13.8946 84.2885 13.8946 82.8927V37.7976C13.8946 36.4018 15.026 35.2704 16.4218 35.2704H27.1793C28.5751 35.2704 29.7065 36.4018 29.7065 37.7976V82.8927ZM21.8005 31.0196C16.1564 31.0196 11.5808 26.444 11.5808 20.7998C11.5808 15.1557 16.1564 10.5801 21.8005 10.5801C27.4447 10.5801 32.0203 15.1557 32.0203 20.7998C32.0203 26.444 27.4449 31.0196 21.8005 31.0196ZM85.925 83.0963C85.925 84.3795 84.8846 85.4199 83.6014 85.4199H72.0578C70.7746 85.4199 69.7342 84.3795 69.7342 83.0963V61.9441C69.7342 58.7887 70.6598 48.1169 61.488 48.1169C54.3737 48.1169 52.9307 55.4214 52.6409 58.6995V83.0963C52.6409 84.3795 51.6007 85.4199 50.3173 85.4199H39.1527C37.8695 85.4199 36.8291 84.3795 36.8291 83.0963V37.5941C36.8291 36.3109 37.8695 35.2704 39.1527 35.2704H50.3173C51.6005 35.2704 52.6409 36.3109 52.6409 37.5941V41.5283C55.2789 37.5694 59.1993 34.5138 67.5465 34.5138C86.0308 34.5138 85.925 51.7827 85.925 61.2711V83.0963Z" fill="white"/>
</svg>
